<?plantuml 1.2026.1?><svg xmlns="http://www.w3.org/2000/svg" xmlns:xlink="http://www.w3.org/1999/xlink" contentStyleType="text/css" data-diagram-type="SEQUENCE" height="2002px" preserveAspectRatio="none" style="width:1286px;height:2002px;background:#FFFFFF;" version="1.1" viewBox="0 0 1286 2002" width="1286px" zoomAndPan="magnify"><title>Secuencia - Flujo General CourseFlow</title><defs/><g><text fill="#000000" font-family="sans-serif" font-size="14" font-weight="bold" lengthAdjust="spacing" textLength="297.0078" x="495.5381" y="27.9951">Secuencia - Flujo General CourseFlow</text><rect fill="none" height="439.7969" style="stroke:#000000;stroke-width:1.5;" width="1269.084" x="10" y="135.5938"/><rect fill="none" height="221.0625" style="stroke:#000000;stroke-width:1.5;" width="1269.084" x="10" y="793.3203"/><rect fill="none" height="439.7969" style="stroke:#000000;stroke-width:1.5;" width="1199.8799" x="79.2041" y="1232.3125"/><g class="participant-lifeline" data-entity-uid="part1" data-qualified-name="Usuario" id="part1-lifeline"><g><title>Usuario</title><rect fill="#000000" fill-opacity="0.00000" height="1803.5781" width="8" x="45.6021" y="118.5938"/><line style="stroke:#181818;stroke-width:0.5;stroke-dasharray:5,5;" x1="49" x2="49" y1="118.5938" y2="1922.1719"/></g></g><g class="participant-lifeline" data-entity-uid="part2" data-qualified-name="Admin" id="part2-lifeline"><g><title>Admin</title><rect fill="#000000" fill-opacity="0.00000" height="1803.5781" width="8" x="110.6362" y="118.5938"/><line style="stroke:#181818;stroke-width:0.5;stroke-dasharray:5,5;" x1="114.2041" x2="114.2041" y1="118.5938" y2="1922.1719"/></g></g><g class="participant-lifeline" data-entity-uid="part3" data-qualified-name="FE" id="part3-lifeline"><g><title>Frontend</title><rect fill="#000000" fill-opacity="0.00000" height="1803.5781" width="8" x="327.5034" y="118.5938"/><line style="stroke:#181818;stroke-width:0.5;stroke-dasharray:5,5;" x1="330.9487" x2="330.9487" y1="118.5938" y2="1922.1719"/></g></g><g class="participant-lifeline" data-entity-uid="part4" data-qualified-name="API" id="part4-lifeline"><g><title>API</title><rect fill="#000000" fill-opacity="0.00000" height="1803.5781" width="8" x="587.7378" y="118.5938"/><line style="stroke:#181818;stroke-width:0.5;stroke-dasharray:5,5;" x1="591.6636" x2="591.6636" y1="118.5938" y2="1922.1719"/></g></g><g class="participant-lifeline" data-entity-uid="part5" data-qualified-name="AUTH" id="part5-lifeline"><g><title>AuthService</title><rect fill="#000000" fill-opacity="0.00000" height="1803.5781" width="8" x="759.0605" y="118.5938"/><line style="stroke:#181818;stroke-width:0.5;stroke-dasharray:5,5;" x1="762.7837" x2="762.7837" y1="118.5938" y2="1922.1719"/></g></g><g class="participant-lifeline" data-entity-uid="part6" data-qualified-name="COURSE" id="part6-lifeline"><g><title>CourseService</title><rect fill="#000000" fill-opacity="0.00000" height="1803.5781" width="8" x="875.6465" y="118.5938"/><line style="stroke:#181818;stroke-width:0.5;stroke-dasharray:5,5;" x1="879.3374" x2="879.3374" y1="118.5938" y2="1922.1719"/></g></g><g class="participant-lifeline" data-entity-uid="part7" data-qualified-name="APP" id="part7-lifeline"><g><title>ApplicationService</title><rect fill="#000000" fill-opacity="0.00000" height="1803.5781" width="8" x="1014.938" y="118.5938"/><line style="stroke:#181818;stroke-width:0.5;stroke-dasharray:5,5;" x1="1017.9556" x2="1017.9556" y1="118.5938" y2="1922.1719"/></g></g><g class="participant-lifeline" data-entity-uid="part8" data-qualified-name="DB" id="part8-lifeline"><g><title>DB</title><rect fill="#000000" fill-opacity="0.00000" height="1803.5781" width="8" x="1247.084" y="118.5938"/><line style="stroke:#181818;stroke-width:0.5;stroke-dasharray:5,5;" x1="1251.084" x2="1251.084" y1="118.5938" y2="1922.1719"/></g></g><g class="participant participant-head" data-entity-uid="part1" data-qualified-name="Usuario" id="part1-head"><text fill="#000000" font-family="sans-serif" font-size="14" lengthAdjust="spacing" textLength="53.2041" x="20" y="115.292">Usuario</text><ellipse cx="49.6021" cy="50.7969" fill="#E2E2F0" rx="8" ry="8" style="stroke:#181818;stroke-width:0.5;"/><path d="M49.6021,58.7969 L49.6021,85.7969 M36.6021,66.7969 L62.6021,66.7969 M49.6021,85.7969 L36.6021,100.7969 M49.6021,85.7969 L62.6021,100.7969" fill="none" style="stroke:#181818;stroke-width:0.5;"/></g><g class="participant participant-tail" data-entity-uid="part1" data-qualified-name="Usuario" id="part1-tail"><text fill="#000000" font-family="sans-serif" font-size="14" lengthAdjust="spacing" textLength="53.2041" x="20" y="1934.167">Usuario</text><ellipse cx="49.6021" cy="1945.9688" fill="#E2E2F0" rx="8" ry="8" style="stroke:#181818;stroke-width:0.5;"/><path d="M49.6021,1953.9688 L49.6021,1980.9688 M36.6021,1961.9688 L62.6021,1961.9688 M49.6021,1980.9688 L36.6021,1995.9688 M49.6021,1980.9688 L62.6021,1995.9688" fill="none" style="stroke:#181818;stroke-width:0.5;"/></g><g class="participant participant-head" data-entity-uid="part2" data-qualified-name="Admin" id="part2-head"><text fill="#000000" font-family="sans-serif" font-size="14" lengthAdjust="spacing" textLength="44.8643" x="89.2041" y="115.292">Admin</text><ellipse cx="114.6362" cy="50.7969" fill="#E2E2F0" rx="8" ry="8" style="stroke:#181818;stroke-width:0.5;"/><path d="M114.6362,58.7969 L114.6362,85.7969 M101.6362,66.7969 L127.6362,66.7969 M114.6362,85.7969 L101.6362,100.7969 M114.6362,85.7969 L127.6362,100.7969" fill="none" style="stroke:#181818;stroke-width:0.5;"/></g><g class="participant participant-tail" data-entity-uid="part2" data-qualified-name="Admin" id="part2-tail"><text fill="#000000" font-family="sans-serif" font-size="14" lengthAdjust="spacing" textLength="44.8643" x="89.2041" y="1934.167">Admin</text><ellipse cx="114.6362" cy="1945.9688" fill="#E2E2F0" rx="8" ry="8" style="stroke:#181818;stroke-width:0.5;"/><path d="M114.6362,1953.9688 L114.6362,1980.9688 M101.6362,1961.9688 L127.6362,1961.9688 M114.6362,1980.9688 L101.6362,1995.9688 M114.6362,1980.9688 L127.6362,1995.9688" fill="none" style="stroke:#181818;stroke-width:0.5;"/></g><g class="participant participant-head" data-entity-uid="part3" data-qualified-name="FE" id="part3-head"><rect fill="#E2E2F0" height="30.2969" rx="2.5" ry="2.5" style="stroke:#181818;stroke-width:0.5;" width="77.1094" x="292.9487" y="87.2969"/><text fill="#000000" font-family="sans-serif" font-size="14" lengthAdjust="spacing" textLength="63.1094" x="299.9487" y="107.292">Frontend</text></g><g class="participant participant-tail" data-entity-uid="part3" data-qualified-name="FE" id="part3-tail"><rect fill="#E2E2F0" height="30.2969" rx="2.5" ry="2.5" style="stroke:#181818;stroke-width:0.5;" width="77.1094" x="292.9487" y="1921.1719"/><text fill="#000000" font-family="sans-serif" font-size="14" lengthAdjust="spacing" textLength="63.1094" x="299.9487" y="1941.167">Frontend</text></g><g class="participant participant-head" data-entity-uid="part4" data-qualified-name="API" id="part4-head"><rect fill="#E2E2F0" height="30.2969" rx="2.5" ry="2.5" style="stroke:#181818;stroke-width:0.5;" width="36.1484" x="573.6636" y="87.2969"/><text fill="#000000" font-family="sans-serif" font-size="14" lengthAdjust="spacing" textLength="22.1484" x="580.6636" y="107.292">API</text></g><g class="participant participant-tail" data-entity-uid="part4" data-qualified-name="API" id="part4-tail"><rect fill="#E2E2F0" height="30.2969" rx="2.5" ry="2.5" style="stroke:#181818;stroke-width:0.5;" width="36.1484" x="573.6636" y="1921.1719"/><text fill="#000000" font-family="sans-serif" font-size="14" lengthAdjust="spacing" textLength="22.1484" x="580.6636" y="1941.167">API</text></g><g class="participant participant-head" data-entity-uid="part5" data-qualified-name="AUTH" id="part5-head"><rect fill="#E2E2F0" height="30.2969" rx="2.5" ry="2.5" style="stroke:#181818;stroke-width:0.5;" width="98.5537" x="713.7837" y="87.2969"/><text fill="#000000" font-family="sans-serif" font-size="14" lengthAdjust="spacing" textLength="84.5537" x="720.7837" y="107.292">AuthService</text></g><g class="participant participant-tail" data-entity-uid="part5" data-qualified-name="AUTH" id="part5-tail"><rect fill="#E2E2F0" height="30.2969" rx="2.5" ry="2.5" style="stroke:#181818;stroke-width:0.5;" width="98.5537" x="713.7837" y="1921.1719"/><text fill="#000000" font-family="sans-serif" font-size="14" lengthAdjust="spacing" textLength="84.5537" x="720.7837" y="1941.167">AuthService</text></g><g class="participant participant-head" data-entity-uid="part6" data-qualified-name="COURSE" id="part6-head"><rect fill="#E2E2F0" height="30.2969" rx="2.5" ry="2.5" style="stroke:#181818;stroke-width:0.5;" width="114.6182" x="822.3374" y="87.2969"/><text fill="#000000" font-family="sans-serif" font-size="14" lengthAdjust="spacing" textLength="100.6182" x="829.3374" y="107.292">CourseService</text></g><g class="participant participant-tail" data-entity-uid="part6" data-qualified-name="COURSE" id="part6-tail"><rect fill="#E2E2F0" height="30.2969" rx="2.5" ry="2.5" style="stroke:#181818;stroke-width:0.5;" width="114.6182" x="822.3374" y="1921.1719"/><text fill="#000000" font-family="sans-serif" font-size="14" lengthAdjust="spacing" textLength="100.6182" x="829.3374" y="1941.167">CourseService</text></g><g class="participant participant-head" data-entity-uid="part7" data-qualified-name="APP" id="part7-head"><rect fill="#E2E2F0" height="30.2969" rx="2.5" ry="2.5" style="stroke:#181818;stroke-width:0.5;" width="143.9648" x="946.9556" y="87.2969"/><text fill="#000000" font-family="sans-serif" font-size="14" lengthAdjust="spacing" textLength="129.9648" x="953.9556" y="107.292">ApplicationService</text></g><g class="participant participant-tail" data-entity-uid="part7" data-qualified-name="APP" id="part7-tail"><rect fill="#E2E2F0" height="30.2969" rx="2.5" ry="2.5" style="stroke:#181818;stroke-width:0.5;" width="143.9648" x="946.9556" y="1921.1719"/><text fill="#000000" font-family="sans-serif" font-size="14" lengthAdjust="spacing" textLength="129.9648" x="953.9556" y="1941.167">ApplicationService</text></g><g class="participant participant-head" data-entity-uid="part8" data-qualified-name="DB" id="part8-head"><text fill="#000000" font-family="sans-serif" font-size="14" lengthAdjust="spacing" textLength="20.3848" x="1237.8916" y="115.292">DB</text><path d="M1233.084,66.2969 C1233.084,56.2969 1251.084,56.2969 1251.084,56.2969 C1251.084,56.2969 1269.084,56.2969 1269.084,66.2969 L1269.084,92.2969 C1269.084,102.2969 1251.084,102.2969 1251.084,102.2969 C1251.084,102.2969 1233.084,102.2969 1233.084,92.2969 L1233.084,66.2969" fill="#E2E2F0" style="stroke:#181818;stroke-width:0.5;"/><path d="M1233.084,66.2969 C1233.084,76.2969 1251.084,76.2969 1251.084,76.2969 C1251.084,76.2969 1269.084,76.2969 1269.084,66.2969" fill="none" style="stroke:#181818;stroke-width:0.5;"/></g><g class="participant participant-tail" data-entity-uid="part8" data-qualified-name="DB" id="part8-tail"><text fill="#000000" font-family="sans-serif" font-size="14" lengthAdjust="spacing" textLength="20.3848" x="1237.8916" y="1934.167">DB</text><path d="M1233.084,1947.4688 C1233.084,1937.4688 1251.084,1937.4688 1251.084,1937.4688 C1251.084,1937.4688 1269.084,1937.4688 1269.084,1947.4688 L1269.084,1973.4688 C1269.084,1983.4688 1251.084,1983.4688 1251.084,1983.4688 C1251.084,1983.4688 1233.084,1983.4688 1233.084,1973.4688 L1233.084,1947.4688" fill="#E2E2F0" style="stroke:#181818;stroke-width:0.5;"/><path d="M1233.084,1947.4688 C1233.084,1957.4688 1251.084,1957.4688 1251.084,1957.4688 C1251.084,1957.4688 1269.084,1957.4688 1269.084,1947.4688" fill="none" style="stroke:#181818;stroke-width:0.5;"/></g><path d="M10,135.5938 L74.4429,135.5938 L74.4429,142.7266 L64.4429,152.7266 L10,152.7266 L10,135.5938" fill="#EEEEEE" style="stroke:#000000;stroke-width:1.5;"/><rect fill="none" height="439.7969" style="stroke:#000000;stroke-width:1.5;" width="1269.084" x="10" y="135.5938"/><text fill="#000000" font-family="sans-serif" font-size="13" font-weight="bold" lengthAdjust="spacing" textLength="19.4429" x="25" y="148.6606">alt</text><text fill="#000000" font-family="sans-serif" font-size="11" font-weight="bold" lengthAdjust="spacing" textLength="125.9844" x="89.4429" y="147.8042">[Usuario registrado]</text><g class="message" data-entity-1="part1" data-entity-2="part3" id="msg1"><polygon fill="#181818" points="319.5034,169.8594,329.5034,173.8594,319.5034,177.8594,323.5034,173.8594" style="stroke:#181818;stroke-width:1;"/><line style="stroke:#181818;stroke-width:1;" x1="49.6021" x2="325.5034" y1="173.8594" y2="173.8594"/><text fill="#000000" font-family="sans-serif" font-size="13" lengthAdjust="spacing" textLength="79.8916" x="56.6021" y="168.7935">Inicia sesion</text></g><g class="message" data-entity-1="part3" data-entity-2="part4" id="msg2"><polygon fill="#181818" points="579.7378,198.9922,589.7378,202.9922,579.7378,206.9922,583.7378,202.9922" style="stroke:#181818;stroke-width:1;"/><line style="stroke:#181818;stroke-width:1;" x1="331.5034" x2="585.7378" y1="202.9922" y2="202.9922"/><text fill="#000000" font-family="sans-serif" font-size="13" lengthAdjust="spacing" textLength="108.3672" x="338.5034" y="197.9263">POST /auth/login</text></g><g class="message" data-entity-1="part4" data-entity-2="part5" id="msg3"><polygon fill="#181818" points="751.0605,228.125,761.0605,232.125,751.0605,236.125,755.0605,232.125" style="stroke:#181818;stroke-width:1;"/><line style="stroke:#181818;stroke-width:1;" x1="591.7378" x2="757.0605" y1="232.125" y2="232.125"/><text fill="#000000" font-family="sans-serif" font-size="13" lengthAdjust="spacing" textLength="138.6074" x="598.7378" y="227.0591">validarCredenciales()</text></g><g class="message" data-entity-1="part5" data-entity-2="part8" id="msg4"><polygon fill="#181818" points="1239.084,257.2578,1249.084,261.2578,1239.084,265.2578,1243.084,261.2578" style="stroke:#181818;stroke-width:1;"/><line style="stroke:#181818;stroke-width:1;" x1="763.0605" x2="1245.084" y1="261.2578" y2="261.2578"/><text fill="#000000" font-family="sans-serif" font-size="13" lengthAdjust="spacing" textLength="81.4277" x="770.0605" y="256.1919">SELECT user</text></g><g class="message" data-entity-1="part8" data-entity-2="part5" id="msg5"><polygon fill="#181818" points="774.0605,286.3906,764.0605,290.3906,774.0605,294.3906,770.0605,290.3906" style="stroke:#181818;stroke-width:1;"/><line style="stroke:#181818;stroke-width:1;stroke-dasharray:2,2;" x1="768.0605" x2="1250.084" y1="290.3906" y2="290.3906"/><text fill="#000000" font-family="sans-serif" font-size="13" lengthAdjust="spacing" textLength="88.3022" x="780.0605" y="285.3247">datos usuario</text></g><g class="message" data-entity-1="part5" data-entity-2="part4" id="msg6"><polygon fill="#181818" points="602.7378,315.5234,592.7378,319.5234,602.7378,323.5234,598.7378,319.5234" style="stroke:#181818;stroke-width:1;"/><line style="stroke:#181818;stroke-width:1;stroke-dasharray:2,2;" x1="596.7378" x2="762.0605" y1="319.5234" y2="319.5234"/><text fill="#000000" font-family="sans-serif" font-size="13" lengthAdjust="spacing" textLength="147.3228" x="608.7378" y="314.4575">usuario valido + token</text></g><g class="message" data-entity-1="part4" data-entity-2="part3" id="msg7"><polygon fill="#181818" points="342.5034,344.6563,332.5034,348.6563,342.5034,352.6563,338.5034,348.6563" style="stroke:#181818;stroke-width:1;"/><line style="stroke:#181818;stroke-width:1;stroke-dasharray:2,2;" x1="336.5034" x2="590.7378" y1="348.6563" y2="348.6563"/><text fill="#000000" font-family="sans-serif" font-size="13" lengthAdjust="spacing" textLength="91.4888" x="348.5034" y="343.5903">200 OK + JWT</text></g><line style="stroke:#000000;stroke-width:1;stroke-dasharray:2,2;" x1="10" x2="1279.084" y1="357.6563" y2="357.6563"/><text fill="#000000" font-family="sans-serif" font-size="11" font-weight="bold" lengthAdjust="spacing" textLength="145.2021" x="15" y="367.8667">[Usuario no registrado]</text><g class="message" data-entity-1="part1" data-entity-2="part3" id="msg8"><polygon fill="#181818" points="319.5034,388.5938,329.5034,392.5938,319.5034,396.5938,323.5034,392.5938" style="stroke:#181818;stroke-width:1;"/><line style="stroke:#181818;stroke-width:1;" x1="49.6021" x2="325.5034" y1="392.5938" y2="392.5938"/><text fill="#000000" font-family="sans-serif" font-size="13" lengthAdjust="spacing" textLength="70.77" x="56.6021" y="387.5278">Se registra</text></g><g class="message" data-entity-1="part3" data-entity-2="part4" id="msg9"><polygon fill="#181818" points="579.7378,417.7266,589.7378,421.7266,579.7378,425.7266,583.7378,421.7266" style="stroke:#181818;stroke-width:1;"/><line style="stroke:#181818;stroke-width:1;" x1="331.5034" x2="585.7378" y1="421.7266" y2="421.7266"/><text fill="#000000" font-family="sans-serif" font-size="13" lengthAdjust="spacing" textLength="127.1182" x="338.5034" y="416.6606">POST /auth/register</text></g><g class="message" data-entity-1="part4" data-entity-2="part5" id="msg10"><polygon fill="#181818" points="751.0605,446.8594,761.0605,450.8594,751.0605,454.8594,755.0605,450.8594" style="stroke:#181818;stroke-width:1;"/><line style="stroke:#181818;stroke-width:1;" x1="591.7378" x2="757.0605" y1="450.8594" y2="450.8594"/><text fill="#000000" font-family="sans-serif" font-size="13" lengthAdjust="spacing" textLength="115.2798" x="598.7378" y="445.7935">registrarUsuario()</text></g><g class="message" data-entity-1="part5" data-entity-2="part8" id="msg11"><polygon fill="#181818" points="1239.084,475.9922,1249.084,479.9922,1239.084,483.9922,1243.084,479.9922" style="stroke:#181818;stroke-width:1;"/><line style="stroke:#181818;stroke-width:1;" x1="763.0605" x2="1245.084" y1="479.9922" y2="479.9922"/><text fill="#000000" font-family="sans-serif" font-size="13" lengthAdjust="spacing" textLength="79.4854" x="770.0605" y="474.9263">INSERT user</text></g><g class="message" data-entity-1="part8" data-entity-2="part5" id="msg12"><polygon fill="#181818" points="774.0605,505.125,764.0605,509.125,774.0605,513.125,770.0605,509.125" style="stroke:#181818;stroke-width:1;"/><line style="stroke:#181818;stroke-width:1;stroke-dasharray:2,2;" x1="768.0605" x2="1250.084" y1="509.125" y2="509.125"/><text fill="#000000" font-family="sans-serif" font-size="13" lengthAdjust="spacing" textLength="96.9224" x="780.0605" y="504.0591">usuario creado</text></g><g class="message" data-entity-1="part5" data-entity-2="part4" id="msg13"><polygon fill="#181818" points="602.7378,534.2578,592.7378,538.2578,602.7378,542.2578,598.7378,538.2578" style="stroke:#181818;stroke-width:1;"/><line style="stroke:#181818;stroke-width:1;stroke-dasharray:2,2;" x1="596.7378" x2="762.0605" y1="538.2578" y2="538.2578"/><text fill="#000000" font-family="sans-serif" font-size="13" lengthAdjust="spacing" textLength="101.5879" x="608.7378" y="533.1919">registro exitoso</text></g><g class="message" data-entity-1="part4" data-entity-2="part3" id="msg14"><polygon fill="#181818" points="342.5034,563.3906,332.5034,567.3906,342.5034,571.3906,338.5034,567.3906" style="stroke:#181818;stroke-width:1;"/><line style="stroke:#181818;stroke-width:1;stroke-dasharray:2,2;" x1="336.5034" x2="590.7378" y1="567.3906" y2="567.3906"/><text fill="#000000" font-family="sans-serif" font-size="13" lengthAdjust="spacing" textLength="80.6787" x="348.5034" y="562.3247">201 Created</text></g><g class="message" data-entity-1="part1" data-entity-2="part3" id="msg15"><polygon fill="#181818" points="319.5034,599.5234,329.5034,603.5234,319.5034,607.5234,323.5034,603.5234" style="stroke:#181818;stroke-width:1;"/><line style="stroke:#181818;stroke-width:1;" x1="49.6021" x2="325.5034" y1="603.5234" y2="603.5234"/><text fill="#000000" font-family="sans-serif" font-size="13" lengthAdjust="spacing" textLength="180.7813" x="56.6021" y="598.4575">Consulta cursos disponibles</text></g><g class="message" data-entity-1="part3" data-entity-2="part4" id="msg16"><polygon fill="#181818" points="579.7378,628.6563,589.7378,632.6563,579.7378,636.6563,583.7378,632.6563" style="stroke:#181818;stroke-width:1;"/><line style="stroke:#181818;stroke-width:1;" x1="331.5034" x2="585.7378" y1="632.6563" y2="632.6563"/><text fill="#000000" font-family="sans-serif" font-size="13" lengthAdjust="spacing" textLength="84.9697" x="338.5034" y="627.5903">GET /courses</text></g><g class="message" data-entity-1="part4" data-entity-2="part6" id="msg17"><polygon fill="#181818" points="867.6465,657.7891,877.6465,661.7891,867.6465,665.7891,871.6465,661.7891" style="stroke:#181818;stroke-width:1;"/><line style="stroke:#181818;stroke-width:1;" x1="591.7378" x2="873.6465" y1="661.7891" y2="661.7891"/><text fill="#000000" font-family="sans-serif" font-size="13" lengthAdjust="spacing" textLength="133.8784" x="598.7378" y="656.7231">listarCursosActivos()</text></g><g class="message" data-entity-1="part6" data-entity-2="part8" id="msg18"><polygon fill="#181818" points="1239.084,686.9219,1249.084,690.9219,1239.084,694.9219,1243.084,690.9219" style="stroke:#181818;stroke-width:1;"/><line style="stroke:#181818;stroke-width:1;" x1="879.6465" x2="1245.084" y1="690.9219" y2="690.9219"/><text fill="#000000" font-family="sans-serif" font-size="13" lengthAdjust="spacing" textLength="146.9482" x="886.6465" y="685.856">SELECT courses active</text></g><g class="message" data-entity-1="part8" data-entity-2="part6" id="msg19"><polygon fill="#181818" points="890.6465,716.0547,880.6465,720.0547,890.6465,724.0547,886.6465,720.0547" style="stroke:#181818;stroke-width:1;"/><line style="stroke:#181818;stroke-width:1;stroke-dasharray:2,2;" x1="884.6465" x2="1250.084" y1="720.0547" y2="720.0547"/><text fill="#000000" font-family="sans-serif" font-size="13" lengthAdjust="spacing" textLength="92.606" x="896.6465" y="714.9888">cursos activos</text></g><g class="message" data-entity-1="part6" data-entity-2="part4" id="msg20"><polygon fill="#181818" points="602.7378,745.1875,592.7378,749.1875,602.7378,753.1875,598.7378,749.1875" style="stroke:#181818;stroke-width:1;"/><line style="stroke:#181818;stroke-width:1;stroke-dasharray:2,2;" x1="596.7378" x2="878.6465" y1="749.1875" y2="749.1875"/><text fill="#000000" font-family="sans-serif" font-size="13" lengthAdjust="spacing" textLength="89.6289" x="608.7378" y="744.1216">listado cursos</text></g><g class="message" data-entity-1="part4" data-entity-2="part3" id="msg21"><polygon fill="#181818" points="342.5034,774.3203,332.5034,778.3203,342.5034,782.3203,338.5034,778.3203" style="stroke:#181818;stroke-width:1;"/><line style="stroke:#181818;stroke-width:1;stroke-dasharray:2,2;" x1="336.5034" x2="590.7378" y1="778.3203" y2="778.3203"/><text fill="#000000" font-family="sans-serif" font-size="13" lengthAdjust="spacing" textLength="109.0908" x="348.5034" y="773.2544">200 OK + cursos</text></g><path d="M10,793.3203 L79.4512,793.3203 L79.4512,800.4531 L69.4512,810.4531 L10,810.4531 L10,793.3203" fill="#EEEEEE" style="stroke:#000000;stroke-width:1.5;"/><rect fill="none" height="221.0625" style="stroke:#000000;stroke-width:1.5;" width="1269.084" x="10" y="793.3203"/><text fill="#000000" font-family="sans-serif" font-size="13" font-weight="bold" lengthAdjust="spacing" textLength="24.4512" x="25" y="806.3872">opt</text><text fill="#000000" font-family="sans-serif" font-size="11" font-weight="bold" lengthAdjust="spacing" textLength="166.9067" x="94.4512" y="805.5308">[Usuario desea inscribirse]</text><g class="message" data-entity-1="part1" data-entity-2="part3" id="msg22"><polygon fill="#181818" points="319.5034,827.5859,329.5034,831.5859,319.5034,835.5859,323.5034,831.5859" style="stroke:#181818;stroke-width:1;"/><line style="stroke:#181818;stroke-width:1;" x1="49.6021" x2="325.5034" y1="831.5859" y2="831.5859"/><text fill="#000000" font-family="sans-serif" font-size="13" lengthAdjust="spacing" textLength="188.6016" x="56.6021" y="826.52">Envia solicitud de inscripcion</text></g><g class="message" data-entity-1="part3" data-entity-2="part4" id="msg23"><polygon fill="#181818" points="579.7378,856.7188,589.7378,860.7188,579.7378,864.7188,583.7378,860.7188" style="stroke:#181818;stroke-width:1;"/><line style="stroke:#181818;stroke-width:1;" x1="331.5034" x2="585.7378" y1="860.7188" y2="860.7188"/><text fill="#000000" font-family="sans-serif" font-size="13" lengthAdjust="spacing" textLength="121.2593" x="338.5034" y="855.6528">POST /applications</text></g><g class="message" data-entity-1="part4" data-entity-2="part7" id="msg24"><polygon fill="#181818" points="1006.938,885.8516,1016.938,889.8516,1006.938,893.8516,1010.938,889.8516" style="stroke:#181818;stroke-width:1;"/><line style="stroke:#181818;stroke-width:1;" x1="591.7378" x2="1012.938" y1="889.8516" y2="889.8516"/><text fill="#000000" font-family="sans-serif" font-size="13" lengthAdjust="spacing" textLength="164.9946" x="598.7378" y="884.7856">crearSolicitud(Pendiente)</text></g><g class="message" data-entity-1="part7" data-entity-2="part8" id="msg25"><polygon fill="#181818" points="1239.084,914.9844,1249.084,918.9844,1239.084,922.9844,1243.084,918.9844" style="stroke:#181818;stroke-width:1;"/><line style="stroke:#181818;stroke-width:1;" x1="1018.938" x2="1245.084" y1="918.9844" y2="918.9844"/><text fill="#000000" font-family="sans-serif" font-size="13" lengthAdjust="spacing" textLength="122.8398" x="1025.938" y="913.9185">INSERT application</text></g><g class="message" data-entity-1="part8" data-entity-2="part7" id="msg26"><polygon fill="#181818" points="1029.938,944.1172,1019.938,948.1172,1029.938,952.1172,1025.938,948.1172" style="stroke:#181818;stroke-width:1;"/><line style="stroke:#181818;stroke-width:1;stroke-dasharray:2,2;" x1="1023.938" x2="1250.084" y1="948.1172" y2="948.1172"/><text fill="#000000" font-family="sans-serif" font-size="13" lengthAdjust="spacing" textLength="103.105" x="1035.938" y="943.0513">solicitud creada</text></g><g class="message" data-entity-1="part7" data-entity-2="part4" id="msg27"><polygon fill="#181818" points="602.7378,973.25,592.7378,977.25,602.7378,981.25,598.7378,977.25" style="stroke:#181818;stroke-width:1;"/><line style="stroke:#181818;stroke-width:1;stroke-dasharray:2,2;" x1="596.7378" x2="1017.938" y1="977.25" y2="977.25"/><text fill="#000000" font-family="sans-serif" font-size="13" lengthAdjust="spacing" textLength="124.1157" x="608.7378" y="972.1841">solicitud pendiente</text></g><g class="message" data-entity-1="part4" data-entity-2="part3" id="msg28"><polygon fill="#181818" points="342.5034,1002.3828,332.5034,1006.3828,342.5034,1010.3828,338.5034,1006.3828" style="stroke:#181818;stroke-width:1;"/><line style="stroke:#181818;stroke-width:1;stroke-dasharray:2,2;" x1="336.5034" x2="590.7378" y1="1006.3828" y2="1006.3828"/><text fill="#000000" font-family="sans-serif" font-size="13" lengthAdjust="spacing" textLength="80.6787" x="348.5034" y="1001.3169">201 Created</text></g><g class="message" data-entity-1="part2" data-entity-2="part3" id="msg29"><polygon fill="#181818" points="319.5034,1038.5156,329.5034,1042.5156,319.5034,1046.5156,323.5034,1042.5156" style="stroke:#181818;stroke-width:1;"/><line style="stroke:#181818;stroke-width:1;" x1="114.6362" x2="325.5034" y1="1042.5156" y2="1042.5156"/><text fill="#000000" font-family="sans-serif" font-size="13" lengthAdjust="spacing" textLength="192.8672" x="121.6362" y="1037.4497">Revisa solicitudes pendientes</text></g><g class="message" data-entity-1="part3" data-entity-2="part4" id="msg30"><polygon fill="#181818" points="579.7378,1067.6484,589.7378,1071.6484,579.7378,1075.6484,583.7378,1071.6484" style="stroke:#181818;stroke-width:1;"/><line style="stroke:#181818;stroke-width:1;" x1="331.5034" x2="585.7378" y1="1071.6484" y2="1071.6484"/><text fill="#000000" font-family="sans-serif" font-size="13" lengthAdjust="spacing" textLength="236.2344" x="338.5034" y="1066.5825">GET /applications?status=Pendiente</text></g><g class="message" data-entity-1="part4" data-entity-2="part7" id="msg31"><polygon fill="#181818" points="1006.938,1096.7813,1016.938,1100.7813,1006.938,1104.7813,1010.938,1100.7813" style="stroke:#181818;stroke-width:1;"/><line style="stroke:#181818;stroke-width:1;" x1="591.7378" x2="1012.938" y1="1100.7813" y2="1100.7813"/><text fill="#000000" font-family="sans-serif" font-size="13" lengthAdjust="spacing" textLength="114.5942" x="598.7378" y="1095.7153">listarPendientes()</text></g><g class="message" data-entity-1="part7" data-entity-2="part8" id="msg32"><polygon fill="#181818" points="1239.084,1125.9141,1249.084,1129.9141,1239.084,1133.9141,1243.084,1129.9141" style="stroke:#181818;stroke-width:1;"/><line style="stroke:#181818;stroke-width:1;" x1="1018.938" x2="1245.084" y1="1129.9141" y2="1129.9141"/><text fill="#000000" font-family="sans-serif" font-size="13" lengthAdjust="spacing" textLength="208.146" x="1025.938" y="1124.8481">SELECT applications pendientes</text></g><g class="message" data-entity-1="part8" data-entity-2="part7" id="msg33"><polygon fill="#181818" points="1029.938,1155.0469,1019.938,1159.0469,1029.938,1163.0469,1025.938,1159.0469" style="stroke:#181818;stroke-width:1;"/><line style="stroke:#181818;stroke-width:1;stroke-dasharray:2,2;" x1="1023.938" x2="1250.084" y1="1159.0469" y2="1159.0469"/><text fill="#000000" font-family="sans-serif" font-size="13" lengthAdjust="spacing" textLength="145.6597" x="1035.938" y="1153.981">solicitudes pendientes</text></g><g class="message" data-entity-1="part7" data-entity-2="part4" id="msg34"><polygon fill="#181818" points="602.7378,1184.1797,592.7378,1188.1797,602.7378,1192.1797,598.7378,1188.1797" style="stroke:#181818;stroke-width:1;"/><line style="stroke:#181818;stroke-width:1;stroke-dasharray:2,2;" x1="596.7378" x2="1017.938" y1="1188.1797" y2="1188.1797"/><text fill="#000000" font-family="sans-serif" font-size="13" lengthAdjust="spacing" textLength="69.0688" x="608.7378" y="1183.1138">solicitudes</text></g><g class="message" data-entity-1="part4" data-entity-2="part3" id="msg35"><polygon fill="#181818" points="342.5034,1213.3125,332.5034,1217.3125,342.5034,1221.3125,338.5034,1217.3125" style="stroke:#181818;stroke-width:1;"/><line style="stroke:#181818;stroke-width:1;stroke-dasharray:2,2;" x1="336.5034" x2="590.7378" y1="1217.3125" y2="1217.3125"/><text fill="#000000" font-family="sans-serif" font-size="13" lengthAdjust="spacing" textLength="47.7026" x="348.5034" y="1212.2466">200 OK</text></g><path d="M79.2041,1232.3125 L143.647,1232.3125 L143.647,1239.4453 L133.647,1249.4453 L79.2041,1249.4453 L79.2041,1232.3125" fill="#EEEEEE" style="stroke:#000000;stroke-width:1.5;"/><rect fill="none" height="439.7969" style="stroke:#000000;stroke-width:1.5;" width="1199.8799" x="79.2041" y="1232.3125"/><text fill="#000000" font-family="sans-serif" font-size="13" font-weight="bold" lengthAdjust="spacing" textLength="19.4429" x="94.2041" y="1245.3794">alt</text><text fill="#000000" font-family="sans-serif" font-size="11" font-weight="bold" lengthAdjust="spacing" textLength="95.2939" x="158.647" y="1244.5229">[Admin acepta]</text><g class="message" data-entity-1="part2" data-entity-2="part3" id="msg36"><polygon fill="#181818" points="319.5034,1266.5781,329.5034,1270.5781,319.5034,1274.5781,323.5034,1270.5781" style="stroke:#181818;stroke-width:1;"/><line style="stroke:#181818;stroke-width:1;" x1="114.6362" x2="325.5034" y1="1270.5781" y2="1270.5781"/><text fill="#000000" font-family="sans-serif" font-size="13" lengthAdjust="spacing" textLength="109.1289" x="121.6362" y="1265.5122">Aceptar solicitud</text></g><g class="message" data-entity-1="part3" data-entity-2="part4" id="msg37"><polygon fill="#181818" points="579.7378,1295.7109,589.7378,1299.7109,579.7378,1303.7109,583.7378,1299.7109" style="stroke:#181818;stroke-width:1;"/><line style="stroke:#181818;stroke-width:1;" x1="331.5034" x2="585.7378" y1="1299.7109" y2="1299.7109"/><text fill="#000000" font-family="sans-serif" font-size="13" lengthAdjust="spacing" textLength="211.2944" x="338.5034" y="1294.645">PATCH /applications/{id}/accept</text></g><g class="message" data-entity-1="part4" data-entity-2="part7" id="msg38"><polygon fill="#181818" points="1006.938,1324.8438,1016.938,1328.8438,1006.938,1332.8438,1010.938,1328.8438" style="stroke:#181818;stroke-width:1;"/><line style="stroke:#181818;stroke-width:1;" x1="591.7378" x2="1012.938" y1="1328.8438" y2="1328.8438"/><text fill="#000000" font-family="sans-serif" font-size="13" lengthAdjust="spacing" textLength="179.7339" x="598.7378" y="1323.7778">actualizarEstado(Aceptado)</text></g><g class="message" data-entity-1="part7" data-entity-2="part8" id="msg39"><polygon fill="#181818" points="1239.084,1353.9766,1249.084,1357.9766,1239.084,1361.9766,1243.084,1357.9766" style="stroke:#181818;stroke-width:1;"/><line style="stroke:#181818;stroke-width:1;" x1="1018.938" x2="1245.084" y1="1357.9766" y2="1357.9766"/><text fill="#000000" font-family="sans-serif" font-size="13" lengthAdjust="spacing" textLength="177.2075" x="1025.938" y="1352.9106">UPDATE status = Aceptado</text></g><g class="message" data-entity-1="part8" data-entity-2="part7" id="msg40"><polygon fill="#181818" points="1029.938,1383.1094,1019.938,1387.1094,1029.938,1391.1094,1025.938,1387.1094" style="stroke:#181818;stroke-width:1;"/><line style="stroke:#181818;stroke-width:1;stroke-dasharray:2,2;" x1="1023.938" x2="1250.084" y1="1387.1094" y2="1387.1094"/><text fill="#000000" font-family="sans-serif" font-size="13" lengthAdjust="spacing" textLength="74.6357" x="1035.938" y="1382.0435">actualizado</text></g><g class="message" data-entity-1="part7" data-entity-2="part4" id="msg41"><polygon fill="#181818" points="602.7378,1412.2422,592.7378,1416.2422,602.7378,1420.2422,598.7378,1416.2422" style="stroke:#181818;stroke-width:1;"/><line style="stroke:#181818;stroke-width:1;stroke-dasharray:2,2;" x1="596.7378" x2="1017.938" y1="1416.2422" y2="1416.2422"/><text fill="#000000" font-family="sans-serif" font-size="13" lengthAdjust="spacing" textLength="15.4819" x="608.7378" y="1411.1763">ok</text></g><g class="message" data-entity-1="part4" data-entity-2="part3" id="msg42"><polygon fill="#181818" points="342.5034,1441.375,332.5034,1445.375,342.5034,1449.375,338.5034,1445.375" style="stroke:#181818;stroke-width:1;"/><line style="stroke:#181818;stroke-width:1;stroke-dasharray:2,2;" x1="336.5034" x2="590.7378" y1="1445.375" y2="1445.375"/><text fill="#000000" font-family="sans-serif" font-size="13" lengthAdjust="spacing" textLength="47.7026" x="348.5034" y="1440.3091">200 OK</text></g><line style="stroke:#000000;stroke-width:1;stroke-dasharray:2,2;" x1="79.2041" x2="1279.084" y1="1454.375" y2="1454.375"/><text fill="#000000" font-family="sans-serif" font-size="11" font-weight="bold" lengthAdjust="spacing" textLength="101.8198" x="84.2041" y="1464.5854">[Admin rechaza]</text><g class="message" data-entity-1="part2" data-entity-2="part3" id="msg43"><polygon fill="#181818" points="319.5034,1485.3125,329.5034,1489.3125,319.5034,1493.3125,323.5034,1489.3125" style="stroke:#181818;stroke-width:1;"/><line style="stroke:#181818;stroke-width:1;" x1="114.6362" x2="325.5034" y1="1489.3125" y2="1489.3125"/><text fill="#000000" font-family="sans-serif" font-size="13" lengthAdjust="spacing" textLength="118.9487" x="121.6362" y="1484.2466">Rechazar solicitud</text></g><g class="message" data-entity-1="part3" data-entity-2="part4" id="msg44"><polygon fill="#181818" points="579.7378,1514.4453,589.7378,1518.4453,579.7378,1522.4453,583.7378,1518.4453" style="stroke:#181818;stroke-width:1;"/><line style="stroke:#181818;stroke-width:1;" x1="331.5034" x2="585.7378" y1="1518.4453" y2="1518.4453"/><text fill="#000000" font-family="sans-serif" font-size="13" lengthAdjust="spacing" textLength="204.8833" x="338.5034" y="1513.3794">PATCH /applications/{id}/reject</text></g><g class="message" data-entity-1="part4" data-entity-2="part7" id="msg45"><polygon fill="#181818" points="1006.938,1543.5781,1016.938,1547.5781,1006.938,1551.5781,1010.938,1547.5781" style="stroke:#181818;stroke-width:1;"/><line style="stroke:#181818;stroke-width:1;" x1="591.7378" x2="1012.938" y1="1547.5781" y2="1547.5781"/><text fill="#000000" font-family="sans-serif" font-size="13" lengthAdjust="spacing" textLength="189.5537" x="598.7378" y="1542.5122">actualizarEstado(Rechazado)</text></g><g class="message" data-entity-1="part7" data-entity-2="part8" id="msg46"><polygon fill="#181818" points="1239.084,1572.7109,1249.084,1576.7109,1239.084,1580.7109,1243.084,1576.7109" style="stroke:#181818;stroke-width:1;"/><line style="stroke:#181818;stroke-width:1;" x1="1018.938" x2="1245.084" y1="1576.7109" y2="1576.7109"/><text fill="#000000" font-family="sans-serif" font-size="13" lengthAdjust="spacing" textLength="187.0273" x="1025.938" y="1571.645">UPDATE status = Rechazado</text></g><g class="message" data-entity-1="part8" data-entity-2="part7" id="msg47"><polygon fill="#181818" points="1029.938,1601.8438,1019.938,1605.8438,1029.938,1609.8438,1025.938,1605.8438" style="stroke:#181818;stroke-width:1;"/><line style="stroke:#181818;stroke-width:1;stroke-dasharray:2,2;" x1="1023.938" x2="1250.084" y1="1605.8438" y2="1605.8438"/><text fill="#000000" font-family="sans-serif" font-size="13" lengthAdjust="spacing" textLength="74.6357" x="1035.938" y="1600.7778">actualizado</text></g><g class="message" data-entity-1="part7" data-entity-2="part4" id="msg48"><polygon fill="#181818" points="602.7378,1630.9766,592.7378,1634.9766,602.7378,1638.9766,598.7378,1634.9766" style="stroke:#181818;stroke-width:1;"/><line style="stroke:#181818;stroke-width:1;stroke-dasharray:2,2;" x1="596.7378" x2="1017.938" y1="1634.9766" y2="1634.9766"/><text fill="#000000" font-family="sans-serif" font-size="13" lengthAdjust="spacing" textLength="15.4819" x="608.7378" y="1629.9106">ok</text></g><g class="message" data-entity-1="part4" data-entity-2="part3" id="msg49"><polygon fill="#181818" points="342.5034,1660.1094,332.5034,1664.1094,342.5034,1668.1094,338.5034,1664.1094" style="stroke:#181818;stroke-width:1;"/><line style="stroke:#181818;stroke-width:1;stroke-dasharray:2,2;" x1="336.5034" x2="590.7378" y1="1664.1094" y2="1664.1094"/><text fill="#000000" font-family="sans-serif" font-size="13" lengthAdjust="spacing" textLength="47.7026" x="348.5034" y="1659.0435">200 OK</text></g><g class="message" data-entity-1="part1" data-entity-2="part3" id="msg50"><polygon fill="#181818" points="319.5034,1696.2422,329.5034,1700.2422,319.5034,1704.2422,323.5034,1700.2422" style="stroke:#181818;stroke-width:1;"/><line style="stroke:#181818;stroke-width:1;" x1="49.6021" x2="325.5034" y1="1700.2422" y2="1700.2422"/><text fill="#000000" font-family="sans-serif" font-size="13" lengthAdjust="spacing" textLength="203.0869" x="56.6021" y="1695.1763">Consulta estado de su solicitud</text></g><g class="message" data-entity-1="part3" data-entity-2="part4" id="msg51"><polygon fill="#181818" points="579.7378,1725.375,589.7378,1729.375,579.7378,1733.375,583.7378,1729.375" style="stroke:#181818;stroke-width:1;"/><line style="stroke:#181818;stroke-width:1;" x1="331.5034" x2="585.7378" y1="1729.375" y2="1729.375"/><text fill="#000000" font-family="sans-serif" font-size="13" lengthAdjust="spacing" textLength="138.2646" x="338.5034" y="1724.3091">GET /applications/me</text></g><g class="message" data-entity-1="part4" data-entity-2="part7" id="msg52"><polygon fill="#181818" points="1006.938,1754.5078,1016.938,1758.5078,1006.938,1762.5078,1010.938,1758.5078" style="stroke:#181818;stroke-width:1;"/><line style="stroke:#181818;stroke-width:1;" x1="591.7378" x2="1012.938" y1="1758.5078" y2="1758.5078"/><text fill="#000000" font-family="sans-serif" font-size="13" lengthAdjust="spacing" textLength="113.0898" x="598.7378" y="1753.4419">listarPorUsuario()</text></g><g class="message" data-entity-1="part7" data-entity-2="part8" id="msg53"><polygon fill="#181818" points="1239.084,1783.6406,1249.084,1787.6406,1239.084,1791.6406,1243.084,1787.6406" style="stroke:#181818;stroke-width:1;"/><line style="stroke:#181818;stroke-width:1;" x1="1018.938" x2="1245.084" y1="1787.6406" y2="1787.6406"/><text fill="#000000" font-family="sans-serif" font-size="13" lengthAdjust="spacing" textLength="184.1201" x="1025.938" y="1782.5747">SELECT applications by user</text></g><g class="message" data-entity-1="part8" data-entity-2="part7" id="msg54"><polygon fill="#181818" points="1029.938,1812.7734,1019.938,1816.7734,1029.938,1820.7734,1025.938,1816.7734" style="stroke:#181818;stroke-width:1;"/><line style="stroke:#181818;stroke-width:1;stroke-dasharray:2,2;" x1="1023.938" x2="1250.084" y1="1816.7734" y2="1816.7734"/><text fill="#000000" font-family="sans-serif" font-size="13" lengthAdjust="spacing" textLength="145.3232" x="1035.938" y="1811.7075">solicitudes del usuario</text></g><g class="message" data-entity-1="part7" data-entity-2="part4" id="msg55"><polygon fill="#181818" points="602.7378,1841.9063,592.7378,1845.9063,602.7378,1849.9063,598.7378,1845.9063" style="stroke:#181818;stroke-width:1;"/><line style="stroke:#181818;stroke-width:1;stroke-dasharray:2,2;" x1="596.7378" x2="1017.938" y1="1845.9063" y2="1845.9063"/><text fill="#000000" font-family="sans-serif" font-size="13" lengthAdjust="spacing" textLength="88.2007" x="608.7378" y="1840.8403">estado actual</text></g><g class="message" data-entity-1="part4" data-entity-2="part3" id="msg56"><polygon fill="#181818" points="342.5034,1871.0391,332.5034,1875.0391,342.5034,1879.0391,338.5034,1875.0391" style="stroke:#181818;stroke-width:1;"/><line style="stroke:#181818;stroke-width:1;stroke-dasharray:2,2;" x1="336.5034" x2="590.7378" y1="1875.0391" y2="1875.0391"/><text fill="#000000" font-family="sans-serif" font-size="13" lengthAdjust="spacing" textLength="110.8999" x="348.5034" y="1869.9731">200 OK + estado</text></g><g class="message" data-entity-1="part3" data-entity-2="part1" id="msg57"><polygon fill="#181818" points="60.6021,1900.1719,50.6021,1904.1719,60.6021,1908.1719,56.6021,1904.1719" style="stroke:#181818;stroke-width:1;"/><line style="stroke:#181818;stroke-width:1;stroke-dasharray:2,2;" x1="54.6021" x2="330.5034" y1="1904.1719" y2="1904.1719"/><text fill="#000000" font-family="sans-serif" font-size="13" lengthAdjust="spacing" textLength="132.9453" x="66.6021" y="1899.106">Muestra estado final</text></g><?plantuml-src hPN9Rjim48RlUef1JYcAm6cF1jB2YvoaMmJBHiyqDKsOAA90Kkw6ldj7N6HALX8Kw2a8P_Xpllb7OoDCYP0ZRx3YWi4PhChcNi8bLgXO2GlPA8shKdvF4iQDLB3L3LD2-lzcnQEeafef8xYeMMNWPALaPR0gJe1fMANzu2oxjkVqTn1ep5sEQYyukeJjvggVuKg9SnOtstK-VA2kIy6P4RBgoMLPKZ33TamZd2pdzd0v9wZI12HGU2kqKQoG2NI7P-y8OWhNbMZxer6JCeLNQHiXZ2baD_a69em09gMy5MsKpcsO8AQmPwKec5eeB6oJIzIdhzeaYhPPo_aKylHJkjX0er5HP3c7i-uwbIqrHLpRmxNmk3ztZqXu3KO-O5U2B_xj-JdSVAJWXw-R14jgGQ2hdgVEiGi_oUmIRDqzx71HUSqZvkilUReUPmvKNA6hgm_jfINW3q7DaKUuRu2wpGmM2GrYaWoe5hBIJMaOS9eewcqXT2qhiIDZaeZnCYL4RgTE9nxDZTmKIdgVBBNtPzo8lMmzTT61fru1M9k6YUSCGhu4vZGwXL23VOTyTMd9gAa-biZwCCe5QcGWAisLs0bw_zZRjDgt0otfSn6cAUYApw_vKoD--BPqv7QMJQrHAWzQfncrNI2j0UjvbWqiZuGYvrkTGpdMUXQkXq8EyJeyyPBvTaK5w3NkXOweoPTEwDZy6FWz6M4QVT6X9J6_cuSkrWv3XEqd8PQBdnrjGB-oyIRWs4IudUQe6SVQs2R6JPZPKtNG6PWzsook-l2JtwBuCs6ylJXmdYQteTtpYwdKZkgfKo_amFfjjfnjKd1TX0i8QOC1wEJSPnzZouVHjUOMcWDKoE_OhoFWjJl-TsA5zyXV9FRoBo9tUV-1-RcrXcvdq0UjcmZvkUcUF8xEiuoMzmlplFlfDlbJmrnWsVs8zH1zjQu9unlEfLW02lcIfl2vmVO79YXy4nK9_0K0?></g></svg>