<?plantuml 1.2026.1?><svg xmlns="http://www.w3.org/2000/svg" xmlns:xlink="http://www.w3.org/1999/xlink" contentStyleType="text/css" data-diagram-type="SEQUENCE" height="644px" preserveAspectRatio="none" style="width:884px;height:644px;background:#FFFFFF;" version="1.1" viewBox="0 0 884 644" width="884px" zoomAndPan="magnify"><title>Secuencia - Autenticacion</title><defs/><g><text fill="#000000" font-family="sans-serif" font-size="14" font-weight="bold" lengthAdjust="spacing" textLength="204.2852" x="333.8328" y="27.9951">Secuencia - Autenticacion</text><rect fill="none" height="265" style="stroke:#000000;stroke-width:1.5;" width="730.4185" x="10" y="281.2578"/><g class="participant-lifeline" data-entity-uid="part1" data-qualified-name="Usuario" id="part1-lifeline"><g><title>Usuario</title><rect fill="#000000" fill-opacity="0.00000" height="444.6641" width="8" x="45.6021" y="118.5938"/><line style="stroke:#181818;stroke-width:0.5;stroke-dasharray:5,5;" x1="49" x2="49" y1="118.5938" y2="563.2578"/></g></g><g class="participant-lifeline" data-entity-uid="part2" data-qualified-name="FE" id="part2-lifeline"><g><title>Frontend</title><rect fill="#000000" fill-opacity="0.00000" height="444.6641" width="8" x="268.2456" y="118.5938"/><line style="stroke:#181818;stroke-width:0.5;stroke-dasharray:5,5;" x1="271.6909" x2="271.6909" y1="118.5938" y2="563.2578"/></g></g><g class="participant-lifeline" data-entity-uid="part3" data-qualified-name="API" id="part3-lifeline"><g><title>API</title><rect fill="#000000" fill-opacity="0.00000" height="444.6641" width="8" x="408.4712" y="118.5938"/><line style="stroke:#181818;stroke-width:0.5;stroke-dasharray:5,5;" x1="412.397" x2="412.397" y1="118.5938" y2="563.2578"/></g></g><g class="participant-lifeline" data-entity-uid="part4" data-qualified-name="AUTH" id="part4-lifeline"><g><title>AuthService</title><rect fill="#000000" fill-opacity="0.00000" height="444.6641" width="8" x="677.1416" y="118.5938"/><line style="stroke:#181818;stroke-width:0.5;stroke-dasharray:5,5;" x1="680.8647" x2="680.8647" y1="118.5938" y2="563.2578"/></g></g><g class="participant-lifeline" data-entity-uid="part5" data-qualified-name="DB" id="part5-lifeline"><g><title>DB</title><rect fill="#000000" fill-opacity="0.00000" height="444.6641" width="8" x="845.9507" y="118.5938"/><line style="stroke:#181818;stroke-width:0.5;stroke-dasharray:5,5;" x1="849.9507" x2="849.9507" y1="118.5938" y2="563.2578"/></g></g><g class="participant participant-head" data-entity-uid="part1" data-qualified-name="Usuario" id="part1-head"><text fill="#000000" font-family="sans-serif" font-size="14" lengthAdjust="spacing" textLength="53.2041" x="20" y="115.292">Usuario</text><ellipse cx="49.6021" cy="50.7969" fill="#E2E2F0" rx="8" ry="8" style="stroke:#181818;stroke-width:0.5;"/><path d="M49.6021,58.7969 L49.6021,85.7969 M36.6021,66.7969 L62.6021,66.7969 M49.6021,85.7969 L36.6021,100.7969 M49.6021,85.7969 L62.6021,100.7969" fill="none" style="stroke:#181818;stroke-width:0.5;"/></g><g class="participant participant-tail" data-entity-uid="part1" data-qualified-name="Usuario" id="part1-tail"><text fill="#000000" font-family="sans-serif" font-size="14" lengthAdjust="spacing" textLength="53.2041" x="20" y="575.2529">Usuario</text><ellipse cx="49.6021" cy="587.0547" fill="#E2E2F0" rx="8" ry="8" style="stroke:#181818;stroke-width:0.5;"/><path d="M49.6021,595.0547 L49.6021,622.0547 M36.6021,603.0547 L62.6021,603.0547 M49.6021,622.0547 L36.6021,637.0547 M49.6021,622.0547 L62.6021,637.0547" fill="none" style="stroke:#181818;stroke-width:0.5;"/></g><g class="participant participant-head" data-entity-uid="part2" data-qualified-name="FE" id="part2-head"><rect fill="#E2E2F0" height="30.2969" rx="2.5" ry="2.5" style="stroke:#181818;stroke-width:0.5;" width="77.1094" x="233.6909" y="87.2969"/><text fill="#000000" font-family="sans-serif" font-size="14" lengthAdjust="spacing" textLength="63.1094" x="240.6909" y="107.292">Frontend</text></g><g class="participant participant-tail" data-entity-uid="part2" data-qualified-name="FE" id="part2-tail"><rect fill="#E2E2F0" height="30.2969" rx="2.5" ry="2.5" style="stroke:#181818;stroke-width:0.5;" width="77.1094" x="233.6909" y="562.2578"/><text fill="#000000" font-family="sans-serif" font-size="14" lengthAdjust="spacing" textLength="63.1094" x="240.6909" y="582.2529">Frontend</text></g><g class="participant participant-head" data-entity-uid="part3" data-qualified-name="API" id="part3-head"><rect fill="#E2E2F0" height="30.2969" rx="2.5" ry="2.5" style="stroke:#181818;stroke-width:0.5;" width="36.1484" x="394.397" y="87.2969"/><text fill="#000000" font-family="sans-serif" font-size="14" lengthAdjust="spacing" textLength="22.1484" x="401.397" y="107.292">API</text></g><g class="participant participant-tail" data-entity-uid="part3" data-qualified-name="API" id="part3-tail"><rect fill="#E2E2F0" height="30.2969" rx="2.5" ry="2.5" style="stroke:#181818;stroke-width:0.5;" width="36.1484" x="394.397" y="562.2578"/><text fill="#000000" font-family="sans-serif" font-size="14" lengthAdjust="spacing" textLength="22.1484" x="401.397" y="582.2529">API</text></g><g class="participant participant-head" data-entity-uid="part4" data-qualified-name="AUTH" id="part4-head"><rect fill="#E2E2F0" height="30.2969" rx="2.5" ry="2.5" style="stroke:#181818;stroke-width:0.5;" width="98.5537" x="631.8647" y="87.2969"/><text fill="#000000" font-family="sans-serif" font-size="14" lengthAdjust="spacing" textLength="84.5537" x="638.8647" y="107.292">AuthService</text></g><g class="participant participant-tail" data-entity-uid="part4" data-qualified-name="AUTH" id="part4-tail"><rect fill="#E2E2F0" height="30.2969" rx="2.5" ry="2.5" style="stroke:#181818;stroke-width:0.5;" width="98.5537" x="631.8647" y="562.2578"/><text fill="#000000" font-family="sans-serif" font-size="14" lengthAdjust="spacing" textLength="84.5537" x="638.8647" y="582.2529">AuthService</text></g><g class="participant participant-head" data-entity-uid="part5" data-qualified-name="DB" id="part5-head"><text fill="#000000" font-family="sans-serif" font-size="14" lengthAdjust="spacing" textLength="20.3848" x="836.7583" y="115.292">DB</text><path d="M831.9507,66.2969 C831.9507,56.2969 849.9507,56.2969 849.9507,56.2969 C849.9507,56.2969 867.9507,56.2969 867.9507,66.2969 L867.9507,92.2969 C867.9507,102.2969 849.9507,102.2969 849.9507,102.2969 C849.9507,102.2969 831.9507,102.2969 831.9507,92.2969 L831.9507,66.2969" fill="#E2E2F0" style="stroke:#181818;stroke-width:0.5;"/><path d="M831.9507,66.2969 C831.9507,76.2969 849.9507,76.2969 849.9507,76.2969 C849.9507,76.2969 867.9507,76.2969 867.9507,66.2969" fill="none" style="stroke:#181818;stroke-width:0.5;"/></g><g class="participant participant-tail" data-entity-uid="part5" data-qualified-name="DB" id="part5-tail"><text fill="#000000" font-family="sans-serif" font-size="14" lengthAdjust="spacing" textLength="20.3848" x="836.7583" y="575.2529">DB</text><path d="M831.9507,588.5547 C831.9507,578.5547 849.9507,578.5547 849.9507,578.5547 C849.9507,578.5547 867.9507,578.5547 867.9507,588.5547 L867.9507,614.5547 C867.9507,624.5547 849.9507,624.5547 849.9507,624.5547 C849.9507,624.5547 831.9507,624.5547 831.9507,614.5547 L831.9507,588.5547" fill="#E2E2F0" style="stroke:#181818;stroke-width:0.5;"/><path d="M831.9507,588.5547 C831.9507,598.5547 849.9507,598.5547 849.9507,598.5547 C849.9507,598.5547 867.9507,598.5547 867.9507,588.5547" fill="none" style="stroke:#181818;stroke-width:0.5;"/></g><g class="message" data-entity-1="part1" data-entity-2="part2" id="msg1"><polygon fill="#181818" points="260.2456,145.7266,270.2456,149.7266,260.2456,153.7266,264.2456,149.7266" style="stroke:#181818;stroke-width:1;"/><line style="stroke:#181818;stroke-width:1;" x1="49.6021" x2="266.2456" y1="149.7266" y2="149.7266"/><text fill="#000000" font-family="sans-serif" font-size="13" lengthAdjust="spacing" textLength="153.6133" x="56.6021" y="144.6606">Envia email y password</text></g><g class="message" data-entity-1="part2" data-entity-2="part3" id="msg2"><polygon fill="#181818" points="400.4712,174.8594,410.4712,178.8594,400.4712,182.8594,404.4712,178.8594" style="stroke:#181818;stroke-width:1;"/><line style="stroke:#181818;stroke-width:1;" x1="272.2456" x2="406.4712" y1="178.8594" y2="178.8594"/><text fill="#000000" font-family="sans-serif" font-size="13" lengthAdjust="spacing" textLength="108.3672" x="279.2456" y="173.7935">POST /auth/login</text></g><g class="message" data-entity-1="part3" data-entity-2="part4" id="msg3"><polygon fill="#181818" points="669.1416,203.9922,679.1416,207.9922,669.1416,211.9922,673.1416,207.9922" style="stroke:#181818;stroke-width:1;"/><line style="stroke:#181818;stroke-width:1;" x1="412.4712" x2="675.1416" y1="207.9922" y2="207.9922"/><text fill="#000000" font-family="sans-serif" font-size="13" lengthAdjust="spacing" textLength="244.6704" x="419.4712" y="202.9263">validarCredenciales(email, password)</text></g><g class="message" data-entity-1="part4" data-entity-2="part5" id="msg4"><polygon fill="#181818" points="837.9507,233.125,847.9507,237.125,837.9507,241.125,841.9507,237.125" style="stroke:#181818;stroke-width:1;"/><line style="stroke:#181818;stroke-width:1;" x1="681.1416" x2="843.9507" y1="237.125" y2="237.125"/><text fill="#000000" font-family="sans-serif" font-size="13" lengthAdjust="spacing" textLength="141.4893" x="688.1416" y="232.0591">SELECT user by email</text></g><g class="message" data-entity-1="part5" data-entity-2="part4" id="msg5"><polygon fill="#181818" points="692.1416,262.2578,682.1416,266.2578,692.1416,270.2578,688.1416,266.2578" style="stroke:#181818;stroke-width:1;"/><line style="stroke:#181818;stroke-width:1;stroke-dasharray:2,2;" x1="686.1416" x2="848.9507" y1="266.2578" y2="266.2578"/><text fill="#000000" font-family="sans-serif" font-size="13" lengthAdjust="spacing" textLength="144.8091" x="698.1416" y="261.1919">user + hash password</text></g><path d="M10,281.2578 L74.4429,281.2578 L74.4429,288.3906 L64.4429,298.3906 L10,298.3906 L10,281.2578" fill="#EEEEEE" style="stroke:#000000;stroke-width:1.5;"/><rect fill="none" height="265" style="stroke:#000000;stroke-width:1.5;" width="730.4185" x="10" y="281.2578"/><text fill="#000000" font-family="sans-serif" font-size="13" font-weight="bold" lengthAdjust="spacing" textLength="19.4429" x="25" y="294.3247">alt</text><text fill="#000000" font-family="sans-serif" font-size="11" font-weight="bold" lengthAdjust="spacing" textLength="137.4785" x="89.4429" y="293.4683">[Credenciales validas]</text><g class="message" data-entity-1="part4" data-entity-2="part3" id="msg6"><polygon fill="#181818" points="423.4712,315.5234,413.4712,319.5234,423.4712,323.5234,419.4712,319.5234" style="stroke:#181818;stroke-width:1;"/><line style="stroke:#181818;stroke-width:1;stroke-dasharray:2,2;" x1="417.4712" x2="680.1416" y1="319.5234" y2="319.5234"/><text fill="#000000" font-family="sans-serif" font-size="13" lengthAdjust="spacing" textLength="107.5674" x="429.4712" y="314.4575">usuario validado</text></g><g class="message" data-entity-1="part3" data-entity-2="part4" id="msg7"><polygon fill="#181818" points="669.1416,344.6563,679.1416,348.6563,669.1416,352.6563,673.1416,348.6563" style="stroke:#181818;stroke-width:1;"/><line style="stroke:#181818;stroke-width:1;" x1="412.4712" x2="675.1416" y1="348.6563" y2="348.6563"/><text fill="#000000" font-family="sans-serif" font-size="13" lengthAdjust="spacing" textLength="114.2705" x="419.4712" y="343.5903">generarJWT(user)</text></g><g class="message" data-entity-1="part4" data-entity-2="part3" id="msg8"><polygon fill="#181818" points="423.4712,373.7891,413.4712,377.7891,423.4712,381.7891,419.4712,377.7891" style="stroke:#181818;stroke-width:1;"/><line style="stroke:#181818;stroke-width:1;stroke-dasharray:2,2;" x1="417.4712" x2="680.1416" y1="377.7891" y2="377.7891"/><text fill="#000000" font-family="sans-serif" font-size="13" lengthAdjust="spacing" textLength="65.5776" x="429.4712" y="372.7231">token JWT</text></g><g class="message" data-entity-1="part3" data-entity-2="part2" id="msg9"><polygon fill="#181818" points="283.2456,402.9219,273.2456,406.9219,283.2456,410.9219,279.2456,406.9219" style="stroke:#181818;stroke-width:1;"/><line style="stroke:#181818;stroke-width:1;stroke-dasharray:2,2;" x1="277.2456" x2="411.4712" y1="406.9219" y2="406.9219"/><text fill="#000000" font-family="sans-serif" font-size="13" lengthAdjust="spacing" textLength="103.6763" x="289.2456" y="401.856">200 OK + token</text></g><g class="message" data-entity-1="part2" data-entity-2="part1" id="msg10"><polygon fill="#181818" points="60.6021,432.0547,50.6021,436.0547,60.6021,440.0547,56.6021,436.0547" style="stroke:#181818;stroke-width:1;"/><line style="stroke:#181818;stroke-width:1;stroke-dasharray:2,2;" x1="54.6021" x2="271.2456" y1="436.0547" y2="436.0547"/><text fill="#000000" font-family="sans-serif" font-size="13" lengthAdjust="spacing" textLength="86.5122" x="66.6021" y="430.9888">Login exitoso</text></g><line style="stroke:#000000;stroke-width:1;stroke-dasharray:2,2;" x1="10" x2="740.4185" y1="445.0547" y2="445.0547"/><text fill="#000000" font-family="sans-serif" font-size="11" font-weight="bold" lengthAdjust="spacing" textLength="149.0801" x="15" y="455.2651">[Credenciales invalidas]</text><g class="message" data-entity-1="part4" data-entity-2="part3" id="msg11"><polygon fill="#181818" points="423.4712,475.9922,413.4712,479.9922,423.4712,483.9922,419.4712,479.9922" style="stroke:#181818;stroke-width:1;"/><line style="stroke:#181818;stroke-width:1;stroke-dasharray:2,2;" x1="417.4712" x2="680.1416" y1="479.9922" y2="479.9922"/><text fill="#000000" font-family="sans-serif" font-size="13" lengthAdjust="spacing" textLength="124.4331" x="429.4712" y="474.9263">error autenticacion</text></g><g class="message" data-entity-1="part3" data-entity-2="part2" id="msg12"><polygon fill="#181818" points="283.2456,505.125,273.2456,509.125,283.2456,513.125,279.2456,509.125" style="stroke:#181818;stroke-width:1;"/><line style="stroke:#181818;stroke-width:1;stroke-dasharray:2,2;" x1="277.2456" x2="411.4712" y1="509.125" y2="509.125"/><text fill="#000000" font-family="sans-serif" font-size="13" lengthAdjust="spacing" textLength="116.2256" x="289.2456" y="504.0591">401 Unauthorized</text></g><g class="message" data-entity-1="part2" data-entity-2="part1" id="msg13"><polygon fill="#181818" points="60.6021,534.2578,50.6021,538.2578,60.6021,542.2578,56.6021,538.2578" style="stroke:#181818;stroke-width:1;"/><line style="stroke:#181818;stroke-width:1;stroke-dasharray:2,2;" x1="54.6021" x2="271.2456" y1="538.2578" y2="538.2578"/><text fill="#000000" font-family="sans-serif" font-size="13" lengthAdjust="spacing" textLength="198.6436" x="66.6021" y="533.1919">Mostrar error de autenticacion</text></g><?plantuml-src TLBBRi8m4BpxArQSG2s2LZtbK8cGe3weG4fGpqky0gkfZMo7bdvzrqcWXBQdI3lZcTd9UkLBWeoAYdIX48OmgJnfhmeibD52OE6DXPMhq2eZTcWPKZlK7depQpHpPG_GmIpjWfFbOptdxmLG-Mr6TgyAQWYh_458zBX6Hz1BudgQn4AqfZ2yP_K8KhtdWFIEgeG3xD2v3sEbcAM1m3OHB1TP3YDaWr5fDaeBdjOWMqImnr99j5DBijwr9DUlrQvFOWCHgE594aUGfVDqcaFboCBwq3YB98RXIRA6hc2BRliJI63fuTobTNO2e94_vgtQ1HjSca0uJxmXJHRjqslU3qw3NmBUl946neylswfknsDOF7Eoci1WA8cnjj48vg4Ue4_bZJE2Icw-arZf_pAJjNmFs3cIhldT-0PMElm5OzKNoJ_iNuppl5Wh9kb2ZszAV0C0?></g></svg>