<?plantuml 1.2026.1?><svg xmlns="http://www.w3.org/2000/svg" xmlns:xlink="http://www.w3.org/1999/xlink" contentStyleType="text/css" data-diagram-type="SEQUENCE" height="1255px" preserveAspectRatio="none" style="width:1174px;height:1255px;background:#FFFFFF;" version="1.1" viewBox="0 0 1174 1255" width="1174px" zoomAndPan="magnify"><title>Secuencia - Gestion de Solicitudes</title><defs/><g><text fill="#000000" font-family="sans-serif" font-size="14" font-weight="bold" lengthAdjust="spacing" textLength="271.9746" x="452.2844" y="27.9951">Secuencia - Gestion de Solicitudes</text><rect fill="none" height="556.3281" style="stroke:#000000;stroke-width:1.5;" width="1103.3394" x="64.2041" y="572.5859"/><g class="participant-lifeline" data-entity-uid="part1" data-qualified-name="Usuario" id="part1-lifeline"><g><title>Usuario</title><rect fill="#000000" fill-opacity="0.00000" height="1056.4531" width="8" x="30.6021" y="118.5938"/><line style="stroke:#181818;stroke-width:0.5;stroke-dasharray:5,5;" x1="34" x2="34" y1="118.5938" y2="1175.0469"/></g></g><g class="participant-lifeline" data-entity-uid="part2" data-qualified-name="Admin" id="part2-lifeline"><g><title>Admin</title><rect fill="#000000" fill-opacity="0.00000" height="1056.4531" width="8" x="95.6362" y="118.5938"/><line style="stroke:#181818;stroke-width:0.5;stroke-dasharray:5,5;" x1="99.2041" x2="99.2041" y1="118.5938" y2="1175.0469"/></g></g><g class="participant-lifeline" data-entity-uid="part3" data-qualified-name="FE" id="part3-lifeline"><g><title>Frontend</title><rect fill="#000000" fill-opacity="0.00000" height="1056.4531" width="8" x="272.1489" y="118.5938"/><line style="stroke:#181818;stroke-width:0.5;stroke-dasharray:5,5;" x1="275.5942" x2="275.5942" y1="118.5938" y2="1175.0469"/></g></g><g class="participant-lifeline" data-entity-uid="part4" data-qualified-name="API" id="part4-lifeline"><g><title>API</title><rect fill="#000000" fill-opacity="0.00000" height="1056.4531" width="8" x="507.4434" y="118.5938"/><line style="stroke:#181818;stroke-width:0.5;stroke-dasharray:5,5;" x1="511.3691" x2="511.3691" y1="118.5938" y2="1175.0469"/></g></g><g class="participant-lifeline" data-entity-uid="part5" data-qualified-name="APP" id="part5-lifeline"><g><title>ApplicationService</title><rect fill="#000000" fill-opacity="0.00000" height="1056.4531" width="8" x="753.0845" y="118.5938"/><line style="stroke:#181818;stroke-width:0.5;stroke-dasharray:5,5;" x1="756.1021" x2="756.1021" y1="118.5938" y2="1175.0469"/></g></g><g class="participant-lifeline" data-entity-uid="part6" data-qualified-name="DB" id="part6-lifeline"><g><title>DB</title><rect fill="#000000" fill-opacity="0.00000" height="1056.4531" width="8" x="979.4731" y="118.5938"/><line style="stroke:#181818;stroke-width:0.5;stroke-dasharray:5,5;" x1="983.4731" x2="983.4731" y1="118.5938" y2="1175.0469"/></g></g><g class="participant-lifeline" data-entity-uid="part7" data-qualified-name="NOTIF" id="part7-lifeline"><g><title>NotificationService</title><rect fill="#000000" fill-opacity="0.00000" height="1056.4531" width="8" x="1080.5083" y="118.5938"/><line style="stroke:#181818;stroke-width:0.5;stroke-dasharray:5,5;" x1="1084.4731" x2="1084.4731" y1="118.5938" y2="1175.0469"/></g></g><g class="participant participant-head" data-entity-uid="part1" data-qualified-name="Usuario" id="part1-head"><text fill="#000000" font-family="sans-serif" font-size="14" lengthAdjust="spacing" textLength="53.2041" x="5" y="115.292">Usuario</text><ellipse cx="34.6021" cy="50.7969" fill="#E2E2F0" rx="8" ry="8" style="stroke:#181818;stroke-width:0.5;"/><path d="M34.6021,58.7969 L34.6021,85.7969 M21.6021,66.7969 L47.6021,66.7969 M34.6021,85.7969 L21.6021,100.7969 M34.6021,85.7969 L47.6021,100.7969" fill="none" style="stroke:#181818;stroke-width:0.5;"/></g><g class="participant participant-tail" data-entity-uid="part1" data-qualified-name="Usuario" id="part1-tail"><text fill="#000000" font-family="sans-serif" font-size="14" lengthAdjust="spacing" textLength="53.2041" x="5" y="1187.042">Usuario</text><ellipse cx="34.6021" cy="1198.8438" fill="#E2E2F0" rx="8" ry="8" style="stroke:#181818;stroke-width:0.5;"/><path d="M34.6021,1206.8438 L34.6021,1233.8438 M21.6021,1214.8438 L47.6021,1214.8438 M34.6021,1233.8438 L21.6021,1248.8438 M34.6021,1233.8438 L47.6021,1248.8438" fill="none" style="stroke:#181818;stroke-width:0.5;"/></g><g class="participant participant-head" data-entity-uid="part2" data-qualified-name="Admin" id="part2-head"><text fill="#000000" font-family="sans-serif" font-size="14" lengthAdjust="spacing" textLength="44.8643" x="74.2041" y="115.292">Admin</text><ellipse cx="99.6362" cy="50.7969" fill="#E2E2F0" rx="8" ry="8" style="stroke:#181818;stroke-width:0.5;"/><path d="M99.6362,58.7969 L99.6362,85.7969 M86.6362,66.7969 L112.6362,66.7969 M99.6362,85.7969 L86.6362,100.7969 M99.6362,85.7969 L112.6362,100.7969" fill="none" style="stroke:#181818;stroke-width:0.5;"/></g><g class="participant participant-tail" data-entity-uid="part2" data-qualified-name="Admin" id="part2-tail"><text fill="#000000" font-family="sans-serif" font-size="14" lengthAdjust="spacing" textLength="44.8643" x="74.2041" y="1187.042">Admin</text><ellipse cx="99.6362" cy="1198.8438" fill="#E2E2F0" rx="8" ry="8" style="stroke:#181818;stroke-width:0.5;"/><path d="M99.6362,1206.8438 L99.6362,1233.8438 M86.6362,1214.8438 L112.6362,1214.8438 M99.6362,1233.8438 L86.6362,1248.8438 M99.6362,1233.8438 L112.6362,1248.8438" fill="none" style="stroke:#181818;stroke-width:0.5;"/></g><g class="participant participant-head" data-entity-uid="part3" data-qualified-name="FE" id="part3-head"><rect fill="#E2E2F0" height="30.2969" rx="2.5" ry="2.5" style="stroke:#181818;stroke-width:0.5;" width="77.1094" x="237.5942" y="87.2969"/><text fill="#000000" font-family="sans-serif" font-size="14" lengthAdjust="spacing" textLength="63.1094" x="244.5942" y="107.292">Frontend</text></g><g class="participant participant-tail" data-entity-uid="part3" data-qualified-name="FE" id="part3-tail"><rect fill="#E2E2F0" height="30.2969" rx="2.5" ry="2.5" style="stroke:#181818;stroke-width:0.5;" width="77.1094" x="237.5942" y="1174.0469"/><text fill="#000000" font-family="sans-serif" font-size="14" lengthAdjust="spacing" textLength="63.1094" x="244.5942" y="1194.042">Frontend</text></g><g class="participant participant-head" data-entity-uid="part4" data-qualified-name="API" id="part4-head"><rect fill="#E2E2F0" height="30.2969" rx="2.5" ry="2.5" style="stroke:#181818;stroke-width:0.5;" width="36.1484" x="493.3691" y="87.2969"/><text fill="#000000" font-family="sans-serif" font-size="14" lengthAdjust="spacing" textLength="22.1484" x="500.3691" y="107.292">API</text></g><g class="participant participant-tail" data-entity-uid="part4" data-qualified-name="API" id="part4-tail"><rect fill="#E2E2F0" height="30.2969" rx="2.5" ry="2.5" style="stroke:#181818;stroke-width:0.5;" width="36.1484" x="493.3691" y="1174.0469"/><text fill="#000000" font-family="sans-serif" font-size="14" lengthAdjust="spacing" textLength="22.1484" x="500.3691" y="1194.042">API</text></g><g class="participant participant-head" data-entity-uid="part5" data-qualified-name="APP" id="part5-head"><rect fill="#E2E2F0" height="30.2969" rx="2.5" ry="2.5" style="stroke:#181818;stroke-width:0.5;" width="143.9648" x="685.1021" y="87.2969"/><text fill="#000000" font-family="sans-serif" font-size="14" lengthAdjust="spacing" textLength="129.9648" x="692.1021" y="107.292">ApplicationService</text></g><g class="participant participant-tail" data-entity-uid="part5" data-qualified-name="APP" id="part5-tail"><rect fill="#E2E2F0" height="30.2969" rx="2.5" ry="2.5" style="stroke:#181818;stroke-width:0.5;" width="143.9648" x="685.1021" y="1174.0469"/><text fill="#000000" font-family="sans-serif" font-size="14" lengthAdjust="spacing" textLength="129.9648" x="692.1021" y="1194.042">ApplicationService</text></g><g class="participant participant-head" data-entity-uid="part6" data-qualified-name="DB" id="part6-head"><text fill="#000000" font-family="sans-serif" font-size="14" lengthAdjust="spacing" textLength="20.3848" x="970.2808" y="115.292">DB</text><path d="M965.4731,66.2969 C965.4731,56.2969 983.4731,56.2969 983.4731,56.2969 C983.4731,56.2969 1001.4731,56.2969 1001.4731,66.2969 L1001.4731,92.2969 C1001.4731,102.2969 983.4731,102.2969 983.4731,102.2969 C983.4731,102.2969 965.4731,102.2969 965.4731,92.2969 L965.4731,66.2969" fill="#E2E2F0" style="stroke:#181818;stroke-width:0.5;"/><path d="M965.4731,66.2969 C965.4731,76.2969 983.4731,76.2969 983.4731,76.2969 C983.4731,76.2969 1001.4731,76.2969 1001.4731,66.2969" fill="none" style="stroke:#181818;stroke-width:0.5;"/></g><g class="participant participant-tail" data-entity-uid="part6" data-qualified-name="DB" id="part6-tail"><text fill="#000000" font-family="sans-serif" font-size="14" lengthAdjust="spacing" textLength="20.3848" x="970.2808" y="1187.042">DB</text><path d="M965.4731,1200.3438 C965.4731,1190.3438 983.4731,1190.3438 983.4731,1190.3438 C983.4731,1190.3438 1001.4731,1190.3438 1001.4731,1200.3438 L1001.4731,1226.3438 C1001.4731,1236.3438 983.4731,1236.3438 983.4731,1236.3438 C983.4731,1236.3438 965.4731,1236.3438 965.4731,1226.3438 L965.4731,1200.3438" fill="#E2E2F0" style="stroke:#181818;stroke-width:0.5;"/><path d="M965.4731,1200.3438 C965.4731,1210.3438 983.4731,1210.3438 983.4731,1210.3438 C983.4731,1210.3438 1001.4731,1210.3438 1001.4731,1200.3438" fill="none" style="stroke:#181818;stroke-width:0.5;"/></g><g class="participant participant-head" data-entity-uid="part7" data-qualified-name="NOTIF" id="part7-head"><rect fill="#E2E2F0" height="30.2969" rx="2.5" ry="2.5" style="stroke:#181818;stroke-width:0.5;" width="146.0703" x="1011.4731" y="87.2969"/><text fill="#000000" font-family="sans-serif" font-size="14" lengthAdjust="spacing" textLength="132.0703" x="1018.4731" y="107.292">NotificationService</text></g><g class="participant participant-tail" data-entity-uid="part7" data-qualified-name="NOTIF" id="part7-tail"><rect fill="#E2E2F0" height="30.2969" rx="2.5" ry="2.5" style="stroke:#181818;stroke-width:0.5;" width="146.0703" x="1011.4731" y="1174.0469"/><text fill="#000000" font-family="sans-serif" font-size="14" lengthAdjust="spacing" textLength="132.0703" x="1018.4731" y="1194.042">NotificationService</text></g><g class="message" data-entity-1="part1" data-entity-2="part3" id="msg1"><polygon fill="#181818" points="264.1489,145.7266,274.1489,149.7266,264.1489,153.7266,268.1489,149.7266" style="stroke:#181818;stroke-width:1;"/><line style="stroke:#181818;stroke-width:1;" x1="34.6021" x2="270.1489" y1="149.7266" y2="149.7266"/><text fill="#000000" font-family="sans-serif" font-size="13" lengthAdjust="spacing" textLength="194.5493" x="41.6021" y="144.6606">Solicita participar en un curso</text></g><g class="message" data-entity-1="part3" data-entity-2="part4" id="msg2"><polygon fill="#181818" points="499.4434,174.8594,509.4434,178.8594,499.4434,182.8594,503.4434,178.8594" style="stroke:#181818;stroke-width:1;"/><line style="stroke:#181818;stroke-width:1;" x1="276.1489" x2="505.4434" y1="178.8594" y2="178.8594"/><text fill="#000000" font-family="sans-serif" font-size="13" lengthAdjust="spacing" textLength="121.2593" x="283.1489" y="173.7935">POST /applications</text></g><g class="message" data-entity-1="part4" data-entity-2="part5" id="msg3"><polygon fill="#181818" points="745.0845,203.9922,755.0845,207.9922,745.0845,211.9922,749.0845,207.9922" style="stroke:#181818;stroke-width:1;"/><line style="stroke:#181818;stroke-width:1;" x1="511.4434" x2="751.0845" y1="207.9922" y2="207.9922"/><text fill="#000000" font-family="sans-serif" font-size="13" lengthAdjust="spacing" textLength="203.9692" x="518.4434" y="202.9263">crearSolicitud(userId, courseId)</text></g><g class="message" data-entity-1="part5" data-entity-2="part6" id="msg4"><polygon fill="#181818" points="971.4731,233.125,981.4731,237.125,971.4731,241.125,975.4731,237.125" style="stroke:#181818;stroke-width:1;"/><line style="stroke:#181818;stroke-width:1;" x1="757.0845" x2="977.4731" y1="237.125" y2="237.125"/><text fill="#000000" font-family="sans-serif" font-size="13" lengthAdjust="spacing" textLength="202.3887" x="764.0845" y="232.0591">INSERT application (Pendiente)</text></g><g class="message" data-entity-1="part6" data-entity-2="part5" id="msg5"><polygon fill="#181818" points="768.0845,262.2578,758.0845,266.2578,768.0845,270.2578,764.0845,266.2578" style="stroke:#181818;stroke-width:1;"/><line style="stroke:#181818;stroke-width:1;stroke-dasharray:2,2;" x1="762.0845" x2="982.4731" y1="266.2578" y2="266.2578"/><text fill="#000000" font-family="sans-serif" font-size="13" lengthAdjust="spacing" textLength="103.105" x="774.0845" y="261.1919">solicitud creada</text></g><g class="message" data-entity-1="part5" data-entity-2="part4" id="msg6"><polygon fill="#181818" points="522.4434,291.3906,512.4434,295.3906,522.4434,299.3906,518.4434,295.3906" style="stroke:#181818;stroke-width:1;"/><line style="stroke:#181818;stroke-width:1;stroke-dasharray:2,2;" x1="516.4434" x2="756.0845" y1="295.3906" y2="295.3906"/><text fill="#000000" font-family="sans-serif" font-size="13" lengthAdjust="spacing" textLength="124.1157" x="528.4434" y="290.3247">solicitud pendiente</text></g><g class="message" data-entity-1="part4" data-entity-2="part3" id="msg7"><polygon fill="#181818" points="287.1489,320.5234,277.1489,324.5234,287.1489,328.5234,283.1489,324.5234" style="stroke:#181818;stroke-width:1;"/><line style="stroke:#181818;stroke-width:1;stroke-dasharray:2,2;" x1="281.1489" x2="510.4434" y1="324.5234" y2="324.5234"/><text fill="#000000" font-family="sans-serif" font-size="13" lengthAdjust="spacing" textLength="80.6787" x="293.1489" y="319.4575">201 Created</text></g><g class="message" data-entity-1="part3" data-entity-2="part1" id="msg8"><polygon fill="#181818" points="45.6021,349.6563,35.6021,353.6563,45.6021,357.6563,41.6021,353.6563" style="stroke:#181818;stroke-width:1;"/><line style="stroke:#181818;stroke-width:1;stroke-dasharray:2,2;" x1="39.6021" x2="275.1489" y1="353.6563" y2="353.6563"/><text fill="#000000" font-family="sans-serif" font-size="13" lengthAdjust="spacing" textLength="111.6362" x="51.6021" y="348.5903">Solicitud enviada</text></g><g class="message" data-entity-1="part2" data-entity-2="part3" id="msg9"><polygon fill="#181818" points="264.1489,378.7891,274.1489,382.7891,264.1489,386.7891,268.1489,382.7891" style="stroke:#181818;stroke-width:1;"/><line style="stroke:#181818;stroke-width:1;" x1="99.6362" x2="270.1489" y1="382.7891" y2="382.7891"/><text fill="#000000" font-family="sans-serif" font-size="13" lengthAdjust="spacing" textLength="116.2764" x="106.6362" y="377.7231">Revisa solicitudes</text></g><g class="message" data-entity-1="part3" data-entity-2="part4" id="msg10"><polygon fill="#181818" points="499.4434,407.9219,509.4434,411.9219,499.4434,415.9219,503.4434,411.9219" style="stroke:#181818;stroke-width:1;"/><line style="stroke:#181818;stroke-width:1;" x1="276.1489" x2="505.4434" y1="411.9219" y2="411.9219"/><text fill="#000000" font-family="sans-serif" font-size="13" lengthAdjust="spacing" textLength="113.2231" x="283.1489" y="406.856">GET /applications</text></g><g class="message" data-entity-1="part4" data-entity-2="part5" id="msg11"><polygon fill="#181818" points="745.0845,437.0547,755.0845,441.0547,745.0845,445.0547,749.0845,441.0547" style="stroke:#181818;stroke-width:1;"/><line style="stroke:#181818;stroke-width:1;" x1="511.4434" x2="751.0845" y1="441.0547" y2="441.0547"/><text fill="#000000" font-family="sans-serif" font-size="13" lengthAdjust="spacing" textLength="113.0962" x="518.4434" y="435.9888">listarSolicitudes()</text></g><g class="message" data-entity-1="part5" data-entity-2="part6" id="msg12"><polygon fill="#181818" points="971.4731,466.1875,981.4731,470.1875,971.4731,474.1875,975.4731,470.1875" style="stroke:#181818;stroke-width:1;"/><line style="stroke:#181818;stroke-width:1;" x1="757.0845" x2="977.4731" y1="470.1875" y2="470.1875"/><text fill="#000000" font-family="sans-serif" font-size="13" lengthAdjust="spacing" textLength="131.5552" x="764.0845" y="465.1216">SELECT applications</text></g><g class="message" data-entity-1="part6" data-entity-2="part5" id="msg13"><polygon fill="#181818" points="768.0845,495.3203,758.0845,499.3203,768.0845,503.3203,764.0845,499.3203" style="stroke:#181818;stroke-width:1;"/><line style="stroke:#181818;stroke-width:1;stroke-dasharray:2,2;" x1="762.0845" x2="982.4731" y1="499.3203" y2="499.3203"/><text fill="#000000" font-family="sans-serif" font-size="13" lengthAdjust="spacing" textLength="116.4668" x="774.0845" y="494.2544">listado solicitudes</text></g><g class="message" data-entity-1="part5" data-entity-2="part4" id="msg14"><polygon fill="#181818" points="522.4434,524.4531,512.4434,528.4531,522.4434,532.4531,518.4434,528.4531" style="stroke:#181818;stroke-width:1;"/><line style="stroke:#181818;stroke-width:1;stroke-dasharray:2,2;" x1="516.4434" x2="756.0845" y1="528.4531" y2="528.4531"/><text fill="#000000" font-family="sans-serif" font-size="13" lengthAdjust="spacing" textLength="116.4668" x="528.4434" y="523.3872">listado solicitudes</text></g><g class="message" data-entity-1="part4" data-entity-2="part3" id="msg15"><polygon fill="#181818" points="287.1489,553.5859,277.1489,557.5859,287.1489,561.5859,283.1489,557.5859" style="stroke:#181818;stroke-width:1;"/><line style="stroke:#181818;stroke-width:1;stroke-dasharray:2,2;" x1="281.1489" x2="510.4434" y1="557.5859" y2="557.5859"/><text fill="#000000" font-family="sans-serif" font-size="13" lengthAdjust="spacing" textLength="47.7026" x="293.1489" y="552.52">200 OK</text></g><path d="M64.2041,572.5859 L128.647,572.5859 L128.647,579.7188 L118.647,589.7188 L64.2041,589.7188 L64.2041,572.5859" fill="#EEEEEE" style="stroke:#000000;stroke-width:1.5;"/><rect fill="none" height="556.3281" style="stroke:#000000;stroke-width:1.5;" width="1103.3394" x="64.2041" y="572.5859"/><text fill="#000000" font-family="sans-serif" font-size="13" font-weight="bold" lengthAdjust="spacing" textLength="19.4429" x="79.2041" y="585.6528">alt</text><text fill="#000000" font-family="sans-serif" font-size="11" font-weight="bold" lengthAdjust="spacing" textLength="115.2583" x="143.647" y="584.7964">[Aceptar solicitud]</text><g class="message" data-entity-1="part2" data-entity-2="part3" id="msg16"><polygon fill="#181818" points="264.1489,606.8516,274.1489,610.8516,264.1489,614.8516,268.1489,610.8516" style="stroke:#181818;stroke-width:1;"/><line style="stroke:#181818;stroke-width:1;" x1="99.6362" x2="270.1489" y1="610.8516" y2="610.8516"/><text fill="#000000" font-family="sans-serif" font-size="13" lengthAdjust="spacing" textLength="119.3169" x="106.6362" y="605.7856">Aceptar candidato</text></g><g class="message" data-entity-1="part3" data-entity-2="part4" id="msg17"><polygon fill="#181818" points="499.4434,635.9844,509.4434,639.9844,499.4434,643.9844,503.4434,639.9844" style="stroke:#181818;stroke-width:1;"/><line style="stroke:#181818;stroke-width:1;" x1="276.1489" x2="505.4434" y1="639.9844" y2="639.9844"/><text fill="#000000" font-family="sans-serif" font-size="13" lengthAdjust="spacing" textLength="211.2944" x="283.1489" y="634.9185">PATCH /applications/{id}/accept</text></g><g class="message" data-entity-1="part4" data-entity-2="part5" id="msg18"><polygon fill="#181818" points="745.0845,665.1172,755.0845,669.1172,745.0845,673.1172,749.0845,669.1172" style="stroke:#181818;stroke-width:1;"/><line style="stroke:#181818;stroke-width:1;" x1="511.4434" x2="751.0845" y1="669.1172" y2="669.1172"/><text fill="#000000" font-family="sans-serif" font-size="13" lengthAdjust="spacing" textLength="211.8213" x="518.4434" y="664.0513">actualizarEstado(id, "Aceptado")</text></g><g class="message" data-entity-1="part5" data-entity-2="part6" id="msg19"><polygon fill="#181818" points="971.4731,694.25,981.4731,698.25,971.4731,702.25,975.4731,698.25" style="stroke:#181818;stroke-width:1;"/><line style="stroke:#181818;stroke-width:1;" x1="757.0845" x2="977.4731" y1="698.25" y2="698.25"/><text fill="#000000" font-family="sans-serif" font-size="13" lengthAdjust="spacing" textLength="177.2075" x="764.0845" y="693.1841">UPDATE status = Aceptado</text></g><g class="message" data-entity-1="part6" data-entity-2="part5" id="msg20"><polygon fill="#181818" points="768.0845,723.3828,758.0845,727.3828,768.0845,731.3828,764.0845,727.3828" style="stroke:#181818;stroke-width:1;"/><line style="stroke:#181818;stroke-width:1;stroke-dasharray:2,2;" x1="762.0845" x2="982.4731" y1="727.3828" y2="727.3828"/><text fill="#000000" font-family="sans-serif" font-size="13" lengthAdjust="spacing" textLength="74.6357" x="774.0845" y="722.3169">actualizado</text></g><g class="message" data-entity-1="part5" data-entity-2="part7" id="msg21"><polygon fill="#181818" points="1072.5083,752.5156,1082.5083,756.5156,1072.5083,760.5156,1076.5083,756.5156" style="stroke:#181818;stroke-width:1;"/><line style="stroke:#181818;stroke-width:1;" x1="757.0845" x2="1078.5083" y1="756.5156" y2="756.5156"/><text fill="#000000" font-family="sans-serif" font-size="13" lengthAdjust="spacing" textLength="206.7432" x="764.0845" y="751.4497">notificarUsuario(id, "Aceptado")</text></g><g class="message" data-entity-1="part7" data-entity-2="part5" id="msg22"><polygon fill="#181818" points="768.0845,781.6484,758.0845,785.6484,768.0845,789.6484,764.0845,785.6484" style="stroke:#181818;stroke-width:1;"/><line style="stroke:#181818;stroke-width:1;stroke-dasharray:2,2;" x1="762.0845" x2="1083.5083" y1="785.6484" y2="785.6484"/><text fill="#000000" font-family="sans-serif" font-size="13" lengthAdjust="spacing" textLength="131.0156" x="774.0845" y="780.5825">notificacion enviada</text></g><g class="message" data-entity-1="part5" data-entity-2="part4" id="msg23"><polygon fill="#181818" points="522.4434,810.7813,512.4434,814.7813,522.4434,818.7813,518.4434,814.7813" style="stroke:#181818;stroke-width:1;"/><line style="stroke:#181818;stroke-width:1;stroke-dasharray:2,2;" x1="516.4434" x2="756.0845" y1="814.7813" y2="814.7813"/><text fill="#000000" font-family="sans-serif" font-size="13" lengthAdjust="spacing" textLength="61.2358" x="528.4434" y="809.7153">resultado</text></g><g class="message" data-entity-1="part4" data-entity-2="part3" id="msg24"><polygon fill="#181818" points="287.1489,839.9141,277.1489,843.9141,287.1489,847.9141,283.1489,843.9141" style="stroke:#181818;stroke-width:1;"/><line style="stroke:#181818;stroke-width:1;stroke-dasharray:2,2;" x1="281.1489" x2="510.4434" y1="843.9141" y2="843.9141"/><text fill="#000000" font-family="sans-serif" font-size="13" lengthAdjust="spacing" textLength="47.7026" x="293.1489" y="838.8481">200 OK</text></g><line style="stroke:#000000;stroke-width:1;stroke-dasharray:2,2;" x1="64.2041" x2="1167.5435" y1="852.9141" y2="852.9141"/><text fill="#000000" font-family="sans-serif" font-size="11" font-weight="bold" lengthAdjust="spacing" textLength="123.7393" x="69.2041" y="863.1245">[Rechazar solicitud]</text><g class="message" data-entity-1="part2" data-entity-2="part3" id="msg25"><polygon fill="#181818" points="264.1489,883.8516,274.1489,887.8516,264.1489,891.8516,268.1489,887.8516" style="stroke:#181818;stroke-width:1;"/><line style="stroke:#181818;stroke-width:1;" x1="99.6362" x2="270.1489" y1="887.8516" y2="887.8516"/><text fill="#000000" font-family="sans-serif" font-size="13" lengthAdjust="spacing" textLength="129.1367" x="106.6362" y="882.7856">Rechazar candidato</text></g><g class="message" data-entity-1="part3" data-entity-2="part4" id="msg26"><polygon fill="#181818" points="499.4434,912.9844,509.4434,916.9844,499.4434,920.9844,503.4434,916.9844" style="stroke:#181818;stroke-width:1;"/><line style="stroke:#181818;stroke-width:1;" x1="276.1489" x2="505.4434" y1="916.9844" y2="916.9844"/><text fill="#000000" font-family="sans-serif" font-size="13" lengthAdjust="spacing" textLength="204.8833" x="283.1489" y="911.9185">PATCH /applications/{id}/reject</text></g><g class="message" data-entity-1="part4" data-entity-2="part5" id="msg27"><polygon fill="#181818" points="745.0845,942.1172,755.0845,946.1172,745.0845,950.1172,749.0845,946.1172" style="stroke:#181818;stroke-width:1;"/><line style="stroke:#181818;stroke-width:1;" x1="511.4434" x2="751.0845" y1="946.1172" y2="946.1172"/><text fill="#000000" font-family="sans-serif" font-size="13" lengthAdjust="spacing" textLength="221.6411" x="518.4434" y="941.0513">actualizarEstado(id, "Rechazado")</text></g><g class="message" data-entity-1="part5" data-entity-2="part6" id="msg28"><polygon fill="#181818" points="971.4731,971.25,981.4731,975.25,971.4731,979.25,975.4731,975.25" style="stroke:#181818;stroke-width:1;"/><line style="stroke:#181818;stroke-width:1;" x1="757.0845" x2="977.4731" y1="975.25" y2="975.25"/><text fill="#000000" font-family="sans-serif" font-size="13" lengthAdjust="spacing" textLength="187.0273" x="764.0845" y="970.1841">UPDATE status = Rechazado</text></g><g class="message" data-entity-1="part6" data-entity-2="part5" id="msg29"><polygon fill="#181818" points="768.0845,1000.3828,758.0845,1004.3828,768.0845,1008.3828,764.0845,1004.3828" style="stroke:#181818;stroke-width:1;"/><line style="stroke:#181818;stroke-width:1;stroke-dasharray:2,2;" x1="762.0845" x2="982.4731" y1="1004.3828" y2="1004.3828"/><text fill="#000000" font-family="sans-serif" font-size="13" lengthAdjust="spacing" textLength="74.6357" x="774.0845" y="999.3169">actualizado</text></g><g class="message" data-entity-1="part5" data-entity-2="part7" id="msg30"><polygon fill="#181818" points="1072.5083,1029.5156,1082.5083,1033.5156,1072.5083,1037.5156,1076.5083,1033.5156" style="stroke:#181818;stroke-width:1;"/><line style="stroke:#181818;stroke-width:1;" x1="757.0845" x2="1078.5083" y1="1033.5156" y2="1033.5156"/><text fill="#000000" font-family="sans-serif" font-size="13" lengthAdjust="spacing" textLength="216.563" x="764.0845" y="1028.4497">notificarUsuario(id, "Rechazado")</text></g><g class="message" data-entity-1="part7" data-entity-2="part5" id="msg31"><polygon fill="#181818" points="768.0845,1058.6484,758.0845,1062.6484,768.0845,1066.6484,764.0845,1062.6484" style="stroke:#181818;stroke-width:1;"/><line style="stroke:#181818;stroke-width:1;stroke-dasharray:2,2;" x1="762.0845" x2="1083.5083" y1="1062.6484" y2="1062.6484"/><text fill="#000000" font-family="sans-serif" font-size="13" lengthAdjust="spacing" textLength="131.0156" x="774.0845" y="1057.5825">notificacion enviada</text></g><g class="message" data-entity-1="part5" data-entity-2="part4" id="msg32"><polygon fill="#181818" points="522.4434,1087.7813,512.4434,1091.7813,522.4434,1095.7813,518.4434,1091.7813" style="stroke:#181818;stroke-width:1;"/><line style="stroke:#181818;stroke-width:1;stroke-dasharray:2,2;" x1="516.4434" x2="756.0845" y1="1091.7813" y2="1091.7813"/><text fill="#000000" font-family="sans-serif" font-size="13" lengthAdjust="spacing" textLength="61.2358" x="528.4434" y="1086.7153">resultado</text></g><g class="message" data-entity-1="part4" data-entity-2="part3" id="msg33"><polygon fill="#181818" points="287.1489,1116.9141,277.1489,1120.9141,287.1489,1124.9141,283.1489,1120.9141" style="stroke:#181818;stroke-width:1;"/><line style="stroke:#181818;stroke-width:1;stroke-dasharray:2,2;" x1="281.1489" x2="510.4434" y1="1120.9141" y2="1120.9141"/><text fill="#000000" font-family="sans-serif" font-size="13" lengthAdjust="spacing" textLength="47.7026" x="293.1489" y="1115.8481">200 OK</text></g><g class="message" data-entity-1="part3" data-entity-2="part1" id="msg34"><polygon fill="#181818" points="45.6021,1153.0469,35.6021,1157.0469,45.6021,1161.0469,41.6021,1157.0469" style="stroke:#181818;stroke-width:1;"/><line style="stroke:#181818;stroke-width:1;stroke-dasharray:2,2;" x1="39.6021" x2="275.1489" y1="1157.0469" y2="1157.0469"/><text fill="#000000" font-family="sans-serif" font-size="13" lengthAdjust="spacing" textLength="217.5469" x="51.6021" y="1151.981">Estado actualizado de la solicitud</text></g><?plantuml-src jLHDZzCm4BtxLunoQYMgBXmZWTGswHA1sgZ9_W1Z3y8en97jzB28_yx4YVF1LWjejQSgCs_Up7iphbEkGYXGj5WBnM43zsYTqZL82kjA2ULQYPOnBfmsy61RRfGUldRoXwfPmuqZNCDh1z7HwDfXBIFW5exfChdBCn-dtpyIJKEjUDUuG7DL0WTSpYHt_0kt256ozy5alwmzQQU-tYW-dSlioDWmCMm-q3XnqCHXv320DRGrYDPOpOvfXwG1OyZFHGbRFerc6SNxT1w3CCZDQD6gjMWo-GQ49XxCv9h0UGTEzZ5afoAzb33ZWbLEBYaaizOisSCcqDh0w1j8tjE4cQPi4yhxeGPvx-xUme7g74elXSA30V6qJX9yLHqrymiCrbpmgYoVMj3MPsxSfy-PKIdhPcwWNItq5-ddzB3GRnUYVRdKYzuBtRS1SzrtSFv4Lrevs0biQ9W9om0MGWD0SBAGxaiJOBxtNNdukDIw_QdahoqNNM77DbDEBw7bbNha9lKZhXGTGTIta3fQU_Xen4EUxCeK2EbQ2-yXu0WrzsCazPcXtXzq3FLmxsPOx8s67ZcnXGhHtLtO_K0RH1kqRUL2loV6OaKly8BY6tzypjaHyR_M6loEuj-i7NhytTiH-69pborVmTrQiYVFjTSydxRxJwvc3vJz1W00?></g></svg>