<?plantuml 1.2026.1?><svg xmlns="http://www.w3.org/2000/svg" xmlns:xlink="http://www.w3.org/1999/xlink" contentStyleType="text/css" data-diagram-type="SEQUENCE" height="1128px" preserveAspectRatio="none" style="width:878px;height:1128px;background:#FFFFFF;" version="1.1" viewBox="0 0 878 1128" width="878px" zoomAndPan="magnify"><title>Secuencia - Administracion de Cursos</title><defs/><g><text fill="#000000" font-family="sans-serif" font-size="14" font-weight="bold" lengthAdjust="spacing" textLength="297.1719" x="291.6777" y="27.9951">Secuencia - Administracion de Cursos</text><rect fill="none" height="221.0625" style="stroke:#000000;stroke-width:1.5;" width="861.5273" x="10" y="339.5234"/><rect fill="none" height="221.0625" style="stroke:#000000;stroke-width:1.5;" width="861.5273" x="10" y="574.5859"/><rect fill="none" height="221.0625" style="stroke:#000000;stroke-width:1.5;" width="861.5273" x="10" y="809.6484"/><g class="participant-lifeline" data-entity-uid="part1" data-qualified-name="Admin" id="part1-lifeline"><g><title>Admin</title><rect fill="#000000" fill-opacity="0.00000" height="929.1172" width="8" x="41.4321" y="118.5938"/><line style="stroke:#181818;stroke-width:0.5;stroke-dasharray:5,5;" x1="45" x2="45" y1="118.5938" y2="1047.7109"/></g></g><g class="participant-lifeline" data-entity-uid="part2" data-qualified-name="UI" id="part2-lifeline"><g><title>Panel Admin</title><rect fill="#000000" fill-opacity="0.00000" height="929.1172" width="8" x="235.5239" y="118.5938"/><line style="stroke:#181818;stroke-width:0.5;stroke-dasharray:5,5;" x1="238.668" x2="238.668" y1="118.5938" y2="1047.7109"/></g></g><g class="participant-lifeline" data-entity-uid="part3" data-qualified-name="API" id="part3-lifeline"><g><title>API</title><rect fill="#000000" fill-opacity="0.00000" height="929.1172" width="8" x="467.7842" y="118.5938"/><line style="stroke:#181818;stroke-width:0.5;stroke-dasharray:5,5;" x1="471.71" x2="471.71" y1="118.5938" y2="1047.7109"/></g></g><g class="participant-lifeline" data-entity-uid="part4" data-qualified-name="COURSE" id="part4-lifeline"><g><title>CourseService</title><rect fill="#000000" fill-opacity="0.00000" height="929.1172" width="8" x="652.5005" y="118.5938"/><line style="stroke:#181818;stroke-width:0.5;stroke-dasharray:5,5;" x1="656.1914" x2="656.1914" y1="118.5938" y2="1047.7109"/></g></g><g class="participant-lifeline" data-entity-uid="part5" data-qualified-name="DB" id="part5-lifeline"><g><title>DB</title><rect fill="#000000" fill-opacity="0.00000" height="929.1172" width="8" x="839.5273" y="118.5938"/><line style="stroke:#181818;stroke-width:0.5;stroke-dasharray:5,5;" x1="843.5273" x2="843.5273" y1="118.5938" y2="1047.7109"/></g></g><g class="participant participant-head" data-entity-uid="part1" data-qualified-name="Admin" id="part1-head"><text fill="#000000" font-family="sans-serif" font-size="14" lengthAdjust="spacing" textLength="44.8643" x="20" y="115.292">Admin</text><ellipse cx="45.4321" cy="50.7969" fill="#E2E2F0" rx="8" ry="8" style="stroke:#181818;stroke-width:0.5;"/><path d="M45.4321,58.7969 L45.4321,85.7969 M32.4321,66.7969 L58.4321,66.7969 M45.4321,85.7969 L32.4321,100.7969 M45.4321,85.7969 L58.4321,100.7969" fill="none" style="stroke:#181818;stroke-width:0.5;"/></g><g class="participant participant-tail" data-entity-uid="part1" data-qualified-name="Admin" id="part1-tail"><text fill="#000000" font-family="sans-serif" font-size="14" lengthAdjust="spacing" textLength="44.8643" x="20" y="1059.7061">Admin</text><ellipse cx="45.4321" cy="1071.5078" fill="#E2E2F0" rx="8" ry="8" style="stroke:#181818;stroke-width:0.5;"/><path d="M45.4321,1079.5078 L45.4321,1106.5078 M32.4321,1087.5078 L58.4321,1087.5078 M45.4321,1106.5078 L32.4321,1121.5078 M45.4321,1106.5078 L58.4321,1121.5078" fill="none" style="stroke:#181818;stroke-width:0.5;"/></g><g class="participant participant-head" data-entity-uid="part2" data-qualified-name="UI" id="part2-head"><rect fill="#E2E2F0" height="30.2969" rx="2.5" ry="2.5" style="stroke:#181818;stroke-width:0.5;" width="101.7119" x="188.668" y="87.2969"/><text fill="#000000" font-family="sans-serif" font-size="14" lengthAdjust="spacing" textLength="87.7119" x="195.668" y="107.292">Panel Admin</text></g><g class="participant participant-tail" data-entity-uid="part2" data-qualified-name="UI" id="part2-tail"><rect fill="#E2E2F0" height="30.2969" rx="2.5" ry="2.5" style="stroke:#181818;stroke-width:0.5;" width="101.7119" x="188.668" y="1046.7109"/><text fill="#000000" font-family="sans-serif" font-size="14" lengthAdjust="spacing" textLength="87.7119" x="195.668" y="1066.7061">Panel Admin</text></g><g class="participant participant-head" data-entity-uid="part3" data-qualified-name="API" id="part3-head"><rect fill="#E2E2F0" height="30.2969" rx="2.5" ry="2.5" style="stroke:#181818;stroke-width:0.5;" width="36.1484" x="453.71" y="87.2969"/><text fill="#000000" font-family="sans-serif" font-size="14" lengthAdjust="spacing" textLength="22.1484" x="460.71" y="107.292">API</text></g><g class="participant participant-tail" data-entity-uid="part3" data-qualified-name="API" id="part3-tail"><rect fill="#E2E2F0" height="30.2969" rx="2.5" ry="2.5" style="stroke:#181818;stroke-width:0.5;" width="36.1484" x="453.71" y="1046.7109"/><text fill="#000000" font-family="sans-serif" font-size="14" lengthAdjust="spacing" textLength="22.1484" x="460.71" y="1066.7061">API</text></g><g class="participant participant-head" data-entity-uid="part4" data-qualified-name="COURSE" id="part4-head"><rect fill="#E2E2F0" height="30.2969" rx="2.5" ry="2.5" style="stroke:#181818;stroke-width:0.5;" width="114.6182" x="599.1914" y="87.2969"/><text fill="#000000" font-family="sans-serif" font-size="14" lengthAdjust="spacing" textLength="100.6182" x="606.1914" y="107.292">CourseService</text></g><g class="participant participant-tail" data-entity-uid="part4" data-qualified-name="COURSE" id="part4-tail"><rect fill="#E2E2F0" height="30.2969" rx="2.5" ry="2.5" style="stroke:#181818;stroke-width:0.5;" width="114.6182" x="599.1914" y="1046.7109"/><text fill="#000000" font-family="sans-serif" font-size="14" lengthAdjust="spacing" textLength="100.6182" x="606.1914" y="1066.7061">CourseService</text></g><g class="participant participant-head" data-entity-uid="part5" data-qualified-name="DB" id="part5-head"><text fill="#000000" font-family="sans-serif" font-size="14" lengthAdjust="spacing" textLength="20.3848" x="830.335" y="115.292">DB</text><path d="M825.5273,66.2969 C825.5273,56.2969 843.5273,56.2969 843.5273,56.2969 C843.5273,56.2969 861.5273,56.2969 861.5273,66.2969 L861.5273,92.2969 C861.5273,102.2969 843.5273,102.2969 843.5273,102.2969 C843.5273,102.2969 825.5273,102.2969 825.5273,92.2969 L825.5273,66.2969" fill="#E2E2F0" style="stroke:#181818;stroke-width:0.5;"/><path d="M825.5273,66.2969 C825.5273,76.2969 843.5273,76.2969 843.5273,76.2969 C843.5273,76.2969 861.5273,76.2969 861.5273,66.2969" fill="none" style="stroke:#181818;stroke-width:0.5;"/></g><g class="participant participant-tail" data-entity-uid="part5" data-qualified-name="DB" id="part5-tail"><text fill="#000000" font-family="sans-serif" font-size="14" lengthAdjust="spacing" textLength="20.3848" x="830.335" y="1059.7061">DB</text><path d="M825.5273,1073.0078 C825.5273,1063.0078 843.5273,1063.0078 843.5273,1063.0078 C843.5273,1063.0078 861.5273,1063.0078 861.5273,1073.0078 L861.5273,1099.0078 C861.5273,1109.0078 843.5273,1109.0078 843.5273,1109.0078 C843.5273,1109.0078 825.5273,1109.0078 825.5273,1099.0078 L825.5273,1073.0078" fill="#E2E2F0" style="stroke:#181818;stroke-width:0.5;"/><path d="M825.5273,1073.0078 C825.5273,1083.0078 843.5273,1083.0078 843.5273,1083.0078 C843.5273,1083.0078 861.5273,1083.0078 861.5273,1073.0078" fill="none" style="stroke:#181818;stroke-width:0.5;"/></g><g class="message" data-entity-1="part1" data-entity-2="part2" id="msg1"><polygon fill="#181818" points="227.5239,145.7266,237.5239,149.7266,227.5239,153.7266,231.5239,149.7266" style="stroke:#181818;stroke-width:1;"/><line style="stroke:#181818;stroke-width:1;" x1="45.4321" x2="233.5239" y1="149.7266" y2="149.7266"/><text fill="#000000" font-family="sans-serif" font-size="13" lengthAdjust="spacing" textLength="170.0918" x="52.4321" y="144.6606">Accede al panel de cursos</text></g><g class="message" data-entity-1="part2" data-entity-2="part3" id="msg2"><polygon fill="#181818" points="459.7842,174.8594,469.7842,178.8594,459.7842,182.8594,463.7842,178.8594" style="stroke:#181818;stroke-width:1;"/><line style="stroke:#181818;stroke-width:1;" x1="239.5239" x2="465.7842" y1="178.8594" y2="178.8594"/><text fill="#000000" font-family="sans-serif" font-size="13" lengthAdjust="spacing" textLength="84.9697" x="246.5239" y="173.7935">GET /courses</text></g><g class="message" data-entity-1="part3" data-entity-2="part4" id="msg3"><polygon fill="#181818" points="644.5005,203.9922,654.5005,207.9922,644.5005,211.9922,648.5005,207.9922" style="stroke:#181818;stroke-width:1;"/><line style="stroke:#181818;stroke-width:1;" x1="471.7842" x2="650.5005" y1="207.9922" y2="207.9922"/><text fill="#000000" font-family="sans-serif" font-size="13" lengthAdjust="spacing" textLength="86.709" x="478.7842" y="202.9263">listarCursos()</text></g><g class="message" data-entity-1="part4" data-entity-2="part5" id="msg4"><polygon fill="#181818" points="831.5273,233.125,841.5273,237.125,831.5273,241.125,835.5273,237.125" style="stroke:#181818;stroke-width:1;"/><line style="stroke:#181818;stroke-width:1;" x1="656.5005" x2="837.5273" y1="237.125" y2="237.125"/><text fill="#000000" font-family="sans-serif" font-size="13" lengthAdjust="spacing" textLength="156.0254" x="663.5005" y="232.0591">SELECT * FROM courses</text></g><g class="message" data-entity-1="part5" data-entity-2="part4" id="msg5"><polygon fill="#181818" points="667.5005,262.2578,657.5005,266.2578,667.5005,270.2578,663.5005,266.2578" style="stroke:#181818;stroke-width:1;"/><line style="stroke:#181818;stroke-width:1;stroke-dasharray:2,2;" x1="661.5005" x2="842.5273" y1="266.2578" y2="266.2578"/><text fill="#000000" font-family="sans-serif" font-size="13" lengthAdjust="spacing" textLength="89.6289" x="673.5005" y="261.1919">listado cursos</text></g><g class="message" data-entity-1="part4" data-entity-2="part3" id="msg6"><polygon fill="#181818" points="482.7842,291.3906,472.7842,295.3906,482.7842,299.3906,478.7842,295.3906" style="stroke:#181818;stroke-width:1;"/><line style="stroke:#181818;stroke-width:1;stroke-dasharray:2,2;" x1="476.7842" x2="655.5005" y1="295.3906" y2="295.3906"/><text fill="#000000" font-family="sans-serif" font-size="13" lengthAdjust="spacing" textLength="89.6289" x="488.7842" y="290.3247">listado cursos</text></g><g class="message" data-entity-1="part3" data-entity-2="part2" id="msg7"><polygon fill="#181818" points="250.5239,320.5234,240.5239,324.5234,250.5239,328.5234,246.5239,324.5234" style="stroke:#181818;stroke-width:1;"/><line style="stroke:#181818;stroke-width:1;stroke-dasharray:2,2;" x1="244.5239" x2="470.7842" y1="324.5234" y2="324.5234"/><text fill="#000000" font-family="sans-serif" font-size="13" lengthAdjust="spacing" textLength="109.0908" x="256.5239" y="319.4575">200 OK + cursos</text></g><path d="M10,339.5234 L79.4512,339.5234 L79.4512,346.6563 L69.4512,356.6563 L10,356.6563 L10,339.5234" fill="#EEEEEE" style="stroke:#000000;stroke-width:1.5;"/><rect fill="none" height="221.0625" style="stroke:#000000;stroke-width:1.5;" width="861.5273" x="10" y="339.5234"/><text fill="#000000" font-family="sans-serif" font-size="13" font-weight="bold" lengthAdjust="spacing" textLength="24.4512" x="25" y="352.5903">opt</text><text fill="#000000" font-family="sans-serif" font-size="11" font-weight="bold" lengthAdjust="spacing" textLength="81.5708" x="94.4512" y="351.7339">[Crear curso]</text><g class="message" data-entity-1="part1" data-entity-2="part2" id="msg8"><polygon fill="#181818" points="227.5239,373.7891,237.5239,377.7891,227.5239,381.7891,231.5239,377.7891" style="stroke:#181818;stroke-width:1;"/><line style="stroke:#181818;stroke-width:1;" x1="45.4321" x2="233.5239" y1="377.7891" y2="377.7891"/><text fill="#000000" font-family="sans-serif" font-size="13" lengthAdjust="spacing" textLength="134.0181" x="52.4321" y="372.7231">Completa formulario</text></g><g class="message" data-entity-1="part2" data-entity-2="part3" id="msg9"><polygon fill="#181818" points="459.7842,402.9219,469.7842,406.9219,459.7842,410.9219,463.7842,406.9219" style="stroke:#181818;stroke-width:1;"/><line style="stroke:#181818;stroke-width:1;" x1="239.5239" x2="465.7842" y1="406.9219" y2="406.9219"/><text fill="#000000" font-family="sans-serif" font-size="13" lengthAdjust="spacing" textLength="93.0059" x="246.5239" y="401.856">POST /courses</text></g><g class="message" data-entity-1="part3" data-entity-2="part4" id="msg10"><polygon fill="#181818" points="644.5005,432.0547,654.5005,436.0547,644.5005,440.0547,648.5005,436.0547" style="stroke:#181818;stroke-width:1;"/><line style="stroke:#181818;stroke-width:1;" x1="471.7842" x2="650.5005" y1="436.0547" y2="436.0547"/><text fill="#000000" font-family="sans-serif" font-size="13" lengthAdjust="spacing" textLength="110.6143" x="478.7842" y="430.9888">crearCurso(data)</text></g><g class="message" data-entity-1="part4" data-entity-2="part5" id="msg11"><polygon fill="#181818" points="831.5273,461.1875,841.5273,465.1875,831.5273,469.1875,835.5273,465.1875" style="stroke:#181818;stroke-width:1;"/><line style="stroke:#181818;stroke-width:1;" x1="656.5005" x2="837.5273" y1="465.1875" y2="465.1875"/><text fill="#000000" font-family="sans-serif" font-size="13" lengthAdjust="spacing" textLength="94.5864" x="663.5005" y="460.1216">INSERT course</text></g><g class="message" data-entity-1="part5" data-entity-2="part4" id="msg12"><polygon fill="#181818" points="667.5005,490.3203,657.5005,494.3203,667.5005,498.3203,663.5005,494.3203" style="stroke:#181818;stroke-width:1;"/><line style="stroke:#181818;stroke-width:1;stroke-dasharray:2,2;" x1="661.5005" x2="842.5273" y1="494.3203" y2="494.3203"/><text fill="#000000" font-family="sans-serif" font-size="13" lengthAdjust="spacing" textLength="84.2524" x="673.5005" y="489.2544">curso creado</text></g><g class="message" data-entity-1="part4" data-entity-2="part3" id="msg13"><polygon fill="#181818" points="482.7842,519.4531,472.7842,523.4531,482.7842,527.4531,478.7842,523.4531" style="stroke:#181818;stroke-width:1;"/><line style="stroke:#181818;stroke-width:1;stroke-dasharray:2,2;" x1="476.7842" x2="655.5005" y1="523.4531" y2="523.4531"/><text fill="#000000" font-family="sans-serif" font-size="13" lengthAdjust="spacing" textLength="61.2358" x="488.7842" y="518.3872">resultado</text></g><g class="message" data-entity-1="part3" data-entity-2="part2" id="msg14"><polygon fill="#181818" points="250.5239,548.5859,240.5239,552.5859,250.5239,556.5859,246.5239,552.5859" style="stroke:#181818;stroke-width:1;"/><line style="stroke:#181818;stroke-width:1;stroke-dasharray:2,2;" x1="244.5239" x2="470.7842" y1="552.5859" y2="552.5859"/><text fill="#000000" font-family="sans-serif" font-size="13" lengthAdjust="spacing" textLength="80.6787" x="256.5239" y="547.52">201 Created</text></g><path d="M10,574.5859 L79.4512,574.5859 L79.4512,581.7188 L69.4512,591.7188 L10,591.7188 L10,574.5859" fill="#EEEEEE" style="stroke:#000000;stroke-width:1.5;"/><rect fill="none" height="221.0625" style="stroke:#000000;stroke-width:1.5;" width="861.5273" x="10" y="574.5859"/><text fill="#000000" font-family="sans-serif" font-size="13" font-weight="bold" lengthAdjust="spacing" textLength="24.4512" x="25" y="587.6528">opt</text><text fill="#000000" font-family="sans-serif" font-size="11" font-weight="bold" lengthAdjust="spacing" textLength="85.0298" x="94.4512" y="586.7964">[Editar curso]</text><g class="message" data-entity-1="part1" data-entity-2="part2" id="msg15"><polygon fill="#181818" points="227.5239,608.8516,237.5239,612.8516,227.5239,616.8516,231.5239,612.8516" style="stroke:#181818;stroke-width:1;"/><line style="stroke:#181818;stroke-width:1;" x1="45.4321" x2="233.5239" y1="612.8516" y2="612.8516"/><text fill="#000000" font-family="sans-serif" font-size="13" lengthAdjust="spacing" textLength="158.0947" x="52.4321" y="607.7856">Modifica datos del curso</text></g><g class="message" data-entity-1="part2" data-entity-2="part3" id="msg16"><polygon fill="#181818" points="459.7842,637.9844,469.7842,641.9844,459.7842,645.9844,463.7842,641.9844" style="stroke:#181818;stroke-width:1;"/><line style="stroke:#181818;stroke-width:1;" x1="239.5239" x2="465.7842" y1="641.9844" y2="641.9844"/><text fill="#000000" font-family="sans-serif" font-size="13" lengthAdjust="spacing" textLength="116.8223" x="246.5239" y="636.9185">PUT /courses/{id}</text></g><g class="message" data-entity-1="part3" data-entity-2="part4" id="msg17"><polygon fill="#181818" points="644.5005,667.1172,654.5005,671.1172,644.5005,675.1172,648.5005,671.1172" style="stroke:#181818;stroke-width:1;"/><line style="stroke:#181818;stroke-width:1;" x1="471.7842" x2="650.5005" y1="671.1172" y2="671.1172"/><text fill="#000000" font-family="sans-serif" font-size="13" lengthAdjust="spacing" textLength="160.7163" x="478.7842" y="666.0513">actualizarCurso(id, data)</text></g><g class="message" data-entity-1="part4" data-entity-2="part5" id="msg18"><polygon fill="#181818" points="831.5273,696.25,841.5273,700.25,831.5273,704.25,835.5273,700.25" style="stroke:#181818;stroke-width:1;"/><line style="stroke:#181818;stroke-width:1;" x1="656.5005" x2="837.5273" y1="700.25" y2="700.25"/><text fill="#000000" font-family="sans-serif" font-size="13" lengthAdjust="spacing" textLength="106.7739" x="663.5005" y="695.1841">UPDATE courses</text></g><g class="message" data-entity-1="part5" data-entity-2="part4" id="msg19"><polygon fill="#181818" points="667.5005,725.3828,657.5005,729.3828,667.5005,733.3828,663.5005,729.3828" style="stroke:#181818;stroke-width:1;"/><line style="stroke:#181818;stroke-width:1;stroke-dasharray:2,2;" x1="661.5005" x2="842.5273" y1="729.3828" y2="729.3828"/><text fill="#000000" font-family="sans-serif" font-size="13" lengthAdjust="spacing" textLength="114.2261" x="673.5005" y="724.3169">curso actualizado</text></g><g class="message" data-entity-1="part4" data-entity-2="part3" id="msg20"><polygon fill="#181818" points="482.7842,754.5156,472.7842,758.5156,482.7842,762.5156,478.7842,758.5156" style="stroke:#181818;stroke-width:1;"/><line style="stroke:#181818;stroke-width:1;stroke-dasharray:2,2;" x1="476.7842" x2="655.5005" y1="758.5156" y2="758.5156"/><text fill="#000000" font-family="sans-serif" font-size="13" lengthAdjust="spacing" textLength="61.2358" x="488.7842" y="753.4497">resultado</text></g><g class="message" data-entity-1="part3" data-entity-2="part2" id="msg21"><polygon fill="#181818" points="250.5239,783.6484,240.5239,787.6484,250.5239,791.6484,246.5239,787.6484" style="stroke:#181818;stroke-width:1;"/><line style="stroke:#181818;stroke-width:1;stroke-dasharray:2,2;" x1="244.5239" x2="470.7842" y1="787.6484" y2="787.6484"/><text fill="#000000" font-family="sans-serif" font-size="13" lengthAdjust="spacing" textLength="47.7026" x="256.5239" y="782.5825">200 OK</text></g><path d="M10,809.6484 L79.4512,809.6484 L79.4512,816.7813 L69.4512,826.7813 L10,826.7813 L10,809.6484" fill="#EEEEEE" style="stroke:#000000;stroke-width:1.5;"/><rect fill="none" height="221.0625" style="stroke:#000000;stroke-width:1.5;" width="861.5273" x="10" y="809.6484"/><text fill="#000000" font-family="sans-serif" font-size="13" font-weight="bold" lengthAdjust="spacing" textLength="24.4512" x="25" y="822.7153">opt</text><text fill="#000000" font-family="sans-serif" font-size="11" font-weight="bold" lengthAdjust="spacing" textLength="113.894" x="94.4512" y="821.8589">[Desactivar curso]</text><g class="message" data-entity-1="part1" data-entity-2="part2" id="msg22"><polygon fill="#181818" points="227.5239,843.9141,237.5239,847.9141,227.5239,851.9141,231.5239,847.9141" style="stroke:#181818;stroke-width:1;"/><line style="stroke:#181818;stroke-width:1;" x1="45.4321" x2="233.5239" y1="847.9141" y2="847.9141"/><text fill="#000000" font-family="sans-serif" font-size="13" lengthAdjust="spacing" textLength="109.1987" x="52.4321" y="842.8481">Desactivar curso</text></g><g class="message" data-entity-1="part2" data-entity-2="part3" id="msg23"><polygon fill="#181818" points="459.7842,873.0469,469.7842,877.0469,459.7842,881.0469,463.7842,877.0469" style="stroke:#181818;stroke-width:1;"/><line style="stroke:#181818;stroke-width:1;" x1="239.5239" x2="465.7842" y1="877.0469" y2="877.0469"/><text fill="#000000" font-family="sans-serif" font-size="13" lengthAdjust="spacing" textLength="208.2603" x="246.5239" y="871.981">PATCH /courses/{id}/deactivate</text></g><g class="message" data-entity-1="part3" data-entity-2="part4" id="msg24"><polygon fill="#181818" points="644.5005,902.1797,654.5005,906.1797,644.5005,910.1797,648.5005,906.1797" style="stroke:#181818;stroke-width:1;"/><line style="stroke:#181818;stroke-width:1;" x1="471.7842" x2="650.5005" y1="906.1797" y2="906.1797"/><text fill="#000000" font-family="sans-serif" font-size="13" lengthAdjust="spacing" textLength="127.2451" x="478.7842" y="901.1138">desactivarCurso(id)</text></g><g class="message" data-entity-1="part4" data-entity-2="part5" id="msg25"><polygon fill="#181818" points="831.5273,931.3125,841.5273,935.3125,831.5273,939.3125,835.5273,935.3125" style="stroke:#181818;stroke-width:1;"/><line style="stroke:#181818;stroke-width:1;" x1="656.5005" x2="837.5273" y1="935.3125" y2="935.3125"/><text fill="#000000" font-family="sans-serif" font-size="13" lengthAdjust="spacing" textLength="163.0269" x="663.5005" y="930.2466">UPDATE is_active = false</text></g><g class="message" data-entity-1="part5" data-entity-2="part4" id="msg26"><polygon fill="#181818" points="667.5005,960.4453,657.5005,964.4453,667.5005,968.4453,663.5005,964.4453" style="stroke:#181818;stroke-width:1;"/><line style="stroke:#181818;stroke-width:1;stroke-dasharray:2,2;" x1="661.5005" x2="842.5273" y1="964.4453" y2="964.4453"/><text fill="#000000" font-family="sans-serif" font-size="13" lengthAdjust="spacing" textLength="118.3013" x="673.5005" y="959.3794">curso desactivado</text></g><g class="message" data-entity-1="part4" data-entity-2="part3" id="msg27"><polygon fill="#181818" points="482.7842,989.5781,472.7842,993.5781,482.7842,997.5781,478.7842,993.5781" style="stroke:#181818;stroke-width:1;"/><line style="stroke:#181818;stroke-width:1;stroke-dasharray:2,2;" x1="476.7842" x2="655.5005" y1="993.5781" y2="993.5781"/><text fill="#000000" font-family="sans-serif" font-size="13" lengthAdjust="spacing" textLength="61.2358" x="488.7842" y="988.5122">resultado</text></g><g class="message" data-entity-1="part3" data-entity-2="part2" id="msg28"><polygon fill="#181818" points="250.5239,1018.7109,240.5239,1022.7109,250.5239,1026.7109,246.5239,1022.7109" style="stroke:#181818;stroke-width:1;"/><line style="stroke:#181818;stroke-width:1;stroke-dasharray:2,2;" x1="244.5239" x2="470.7842" y1="1022.7109" y2="1022.7109"/><text fill="#000000" font-family="sans-serif" font-size="13" lengthAdjust="spacing" textLength="47.7026" x="256.5239" y="1017.645">200 OK</text></g><?plantuml-src dP91J-Cm48Nl_XMZde2bAhl7IekK9W6gNMZL96Sqs5F9aXj7jiDXL_nt79kqIMaFS4eqR_pUV6CxwHH1GRobcak4AIHY9sjfdK4kTGs286sDrPOnv4wRgBC6ZPDSDbWxcAon9XM52Q25QZdMa_KorFrtBAJQMrD1vbLo2YtfgjeKEHFey0KjmIHRX7gsO2m4mFJM-yyXuPpyRAYW2Ud-dySvgsNNuxFcS9-NCECXn39VwOIOC0Vb6T54jejB5ijTGxQOGv7_pTCIhk1kitg4tY5RmFJOGUW-jtVemu_a4Fyn_A-R6rZzWH-zndJZ83M49bOOm0WsrRj6aKFOQhDh5HhPjGn0rwjYG0fmnCexwu1wqMtsqdUCUPTFHRufFq2zUaGQXWekGW_Ezkc6RAjSrCQOFmEL8y6e5X4p5zATutpKGcubH_1JQkllLEtxXh3LWNNsNugtpy3-gRQevB-UMefhE4rUhREapE6mkfFeUxylydVNV43Fo7eZ-NeE_uG-n4xAz64CFXCK3pZwl0EnT-jtS9PUskVGIl0RjgZEFu6zvtVty0u0?></g></svg>